<svg xmlns="http://www.w3.org/2000/svg" width="350" height="263" viewBox="0 0 350 263">
  <g fill="none" fill-rule="evenodd" transform="translate(0 -7)">
    <path fill="#E0EAF6" d="M207.625,252.953125 C310.626106,252.953125 349.554688,272.794075 349.554688,169.792969 C349.554688,66.7918629 241.313606,38.0625 138.3125,38.0625 C35.3113942,38.0625 0.21875,66.7918629 0.21875,169.792969 C0.21875,272.794075 104.623894,252.953125 207.625,252.953125 Z"/>
    <g transform="translate(64)">
      <g transform="translate(120)">
        <g fill="#323232" transform="translate(42 160)">
          <path d="M4.436125,102.741795 L0.7475,24.9725616 L0.721625,6.81352055 L0.7029375,0.761917808 L21.979375,0.761917808 C20.424,34.7561507 18.8671875,68.7475616 17.3118125,102.741795 C13.0194375,102.741795 8.725625,102.741795 4.436125,102.741795 Z"/>
          <polygon points=".702 .762 .998 .762 .72 6.816 .72 6.814"/>
        </g>
        <g transform="rotate(8 2.907 349.838)">
          <path fill="#AA7764" d="M32.9997446,0 C-11.262582,0 -0.597612413,58.6666667 32.9997446,58.6666667 C66.5977858,58.6666667 77.2627554,0 32.9997446,0"/>
          <path fill="#FCDABE" d="M33.4583333,43.0833333 L33.4583333,43.0833333 C37.7436141,43.0833333 41.25,46.640047 41.25,50.9875244 L41.25,69.0964984 C41.25,73.4432864 37.7436141,77 33.4583333,77 C29.1730526,77 25.6666667,73.4432864 25.6666667,69.0964984 L25.6666667,50.9875244 C25.6666667,46.640047 29.1730526,43.0833333 33.4583333,43.0833333"/>
          <path fill="#FCDABE" d="M33,65.0833333 C66.5979926,65.0833333 77.2624124,0.916666667 33,0.916666667 C-11.2624124,0.916666667 -0.597992629,65.0833333 33,65.0833333 Z"/>
          <path fill="#FCDABE" d="M2.28465079 29.3999933C4.32337409 28.8420352 6.79945758 31.8481767 7.81600763 36.1149149 8.83193287 40.3816531 8.00344771 44.2920483 5.96534921 44.8500064 3.92662591 45.4079644 1.45054242 42.401823.433992374 38.1357546-.581932873 33.8696862.246552292 29.9579514 2.28465079 29.3999933M63.7153802 29.3999933C61.6766845 28.8420352 59.2006346 31.8481767 58.1840983 36.1149149 57.1681869 40.3816531 57.996036 44.2920483 60.0347317 44.8500064 62.0734273 45.4079644 64.5494772 42.401823 65.5660135 38.1357546 66.581925 33.8696862 65.7534511 29.9579514 63.7153802 29.3999933"/>
          <path fill="#425156" d="M41.25 39.4166667C42.2594825 39.4166667 43.0833333 37.7691746 43.0833333 35.75 43.0833333 33.7308254 42.2594825 32.0833333 41.25 32.0833333 40.2405175 32.0833333 39.4166667 33.7308254 39.4166667 35.75 39.4166667 37.7691746 40.2405175 39.4166667 41.25 39.4166667M24.75 39.4166667C25.7594825 39.4166667 26.5833333 37.7691746 26.5833333 35.75 26.5833333 33.7308254 25.7594825 32.0833333 24.75 32.0833333 23.7399282 32.0833333 22.9166667 33.7308254 22.9166667 35.75 22.9166667 37.7691746 23.7399282 39.4166667 24.75 39.4166667"/>
          <path fill="#AA7764" d="M50.4166667,6.08936338 C46.5820366,18.0743871 15.1908023,32.7414412 3.68215536,27.2159937 C2.79875663,-1.12175584 39.9565461,-5.76641413 50.4166667,6.08936338"/>
          <path fill="#AA7764" d="M38.5 3.27370733C40.7702397 14.5720594 55.3362004 28.5556608 62.2633767 29.3333333 63.468574 12.7853465 48.8409993-.0365806846 38.5 3.27370733M10.2144838 24.5843276C8.20863851 28.4875199 8.14137149 31.6049058 8.64873656 36.1501273 9.15610163 40.6960114 8.12562814 40.1646313 6.36308912 36.6006741 4.59983448 33.0367169 3.34466052 29.4449318 3.73967536 25.4238021 4.1346902 21.4020099 13.7681861 16.3578742 10.2144838 24.5843276"/>
          <path fill="#AA7764" d="M55.7755699,24.732748 C57.640861,29.3471816 57.7082288,32.6945622 57.1946399,37.3469803 C56.6817754,42.0000767 57.8900494,40.6828299 59.6742094,37.0342868 C61.4590938,33.3857437 62.398621,29.726348 62.3298044,25.5921464 C62.2580903,21.3209295 52.1782745,16.3110505 55.7755699,24.732748"/>
          <path fill="#BF9470" d="M22.9166667,48.5833333 C29.520722,52.5368197 39.22857,52.5368197 45.8333333,48.5833333 C41.4353497,58.3611111 27.3146503,58.3611111 22.9166667,48.5833333 Z"/>
          <path fill="#AA7764" d="M26.0027466 28.1353063C24.1795207 26.7976587 21.1318673 27.7266332 19.5995038 29.48809 18.8311879 30.3710258 19.4946226 30.4385073 20.0147603 29.9371259 21.6946893 28.3182002 23.8368273 28.2683773 25.6307841 29.1399611 26.5820325 29.602241 27.0155822 28.8788643 26.0027466 28.1353063M38.1641315 28.1352437C39.9873417 26.7977279 43.0349687 27.7266108 44.5673189 29.4878939 45.3356282 30.3707426 44.6715895 30.4388481 44.1514563 29.9368855 42.4715418 28.3187501 40.330032 28.2683016 38.535481 29.1397993 37.5842409 29.6020337 37.1513047 28.8787284 38.1641315 28.1352437"/>
        </g>
        <path fill="#1A1A1A" d="M45.9992933 270C53.1590823 270 59 267.079996 59 263.5 59 259.920004 53.1590823 257 45.9992933 257 38.8395044 257 33.0000003 259.920004 33.0000003 263.5 32.9985867 267.079996 38.8380908 270 45.9992933 270zM42 97.8223106C34.1234274 97.1251524 18.0835243 91.8978767 11.3711037 88L9 94.1756367C15.0147854 99.6329463 31.464139 107.238181 39.2922053 110L42 97.8223106z"/>
        <path fill="#1A1A1A" d="M65.3506636,88.5572758 C57.1798088,91.8216166 46.9658858,94.8899849 36,97.1240706 L38.6701769,109 C49.0373301,108.43168 58.33471,107.180256 64.4241888,105.525689 C81.4639466,100.892341 83.2260931,81.4154804 65.3506636,88.5572758 Z"/>
        <path fill="#E7B791" d="M11.9679097 85.3324735C10.1031489 83.8707704 8.85203584 84.343383 8.35327185 85.955077 5.88467033 83.449098 2.18176804 83.5863538 1.05394498 85.0508869-1.13585308 87.9035429.196519254 92.6508944 4.03251867 95.6592012 7.86711707 98.6660931 12.7538833 98.7934438 14.9450824 95.9407878 17.1362815 93.0895469 15.8039091 88.3407803 11.9679097 85.3324735zM17.4280047 136.225891C19.3412019 137.246109 19.4215055 138.474621 18.2761231 139.499089 21.2797581 140.635498 22.5617975 143.801007 21.7714413 145.298743 20.2358118 148.210614 15.8036186 148.872339 11.8701528 146.773808 7.93527823 144.676694 5.98967786 140.614244 7.52530741 137.702373 9.06093695 134.787668 13.4931301 134.128777 17.4280047 136.225891z"/>
        <polygon fill="#F5F0F0" points="65.441 76 80 78.125 78.899 85.975 63 90"/>
        <polygon fill="#1A1A1A" points="39.987 158 75 162.944 74.446 170 39 164.994"/>
        <polygon fill="#323232" points="73.86 168 80 81 68.384 81.879 45.814 122.358 39 162.85"/>
        <path fill="#F5F0F0" d="M67,77.8589915 C61.4641491,104.342987 60.2443146,117.314027 47,125 L48.598164,113.54297 L63.0790041,86.0533592 L65.7676473,76 L67,77.8589915 Z"/>
        <path fill="#323232" d="M67,74.9220707 L64.6361538,92.2974622 L63.4682014,94.893446 L51.9549292,119.233604 L44,132 L48.0948187,113.231093 L62.9512847,86.4789748 L65.0482901,77.6866249 C65.3682196,76.3492999 65.22013,71 65.22013,71 L67,74.9220707 Z"/>
        <path fill="#1A1A1A" d="M64.0565405,91.663733 C54.0270816,107.802535 35.76484,128.80249 16,141.604375 L19.5905519,147 C39.5836524,137.553414 64.1153561,117.598366 73.2569797,106.0959 C84.1756744,92.3579814 74.1742229,75.3835362 64.0565405,91.663733 Z"/>
        <path fill="#E7B791" d="M14.9717779,136.064623 C13.0022104,137.453448 13.082077,138.819294 14.482595,139.791615 C11.3278641,141.457631 10.3452196,145.125739 11.417714,146.66824 C13.5028029,149.669941 18.4773514,149.789148 22.526303,146.935377 C26.5766808,144.081607 28.1683081,139.334897 26.0832193,136.33176 C23.9967042,133.330059 19.0207295,133.210852 14.9717779,136.064623 Z"/>
        <g fill="#323232" transform="translate(48 159)">
          <path d="M37.6110833,101.951568 L8.64591667,29.9245405 L2.65908333,12.8404324 L0.655916667,7.14854054 L20.4708333,0.347783784 C30.1806667,32.8435676 39.8905,65.3393514 49.60175,97.8365405 C45.6053333,99.2082162 41.6075,100.579892 37.6110833,101.951568 Z"/>
          <polygon points=".656 7.149 .931 7.053 2.66 12.843 2.659 12.84"/>
        </g>
        <ellipse cx="85.5" cy="262" fill="#1A1A1A" rx="6.5" ry="13" transform="rotate(-109.087 85.5 262)"/>
      </g>
      <g transform="matrix(-1 0 0 1 124 0)">
        <g transform="rotate(8 -4.106 339.407)">
          <path fill="#DEA97E" d="M35.3076923,44.4615385 L35.3076923,44.4615385 C31.2321806,44.4615385 27.8974359,47.8441472 27.8974359,51.9788111 L27.8974359,69.2013318 C27.8974359,73.33534 31.2321806,76.7179487 35.3076923,76.7179487 C39.3832041,76.7179487 42.7179487,73.33534 42.7179487,69.2013318 L42.7179487,51.9788111 C42.7179487,47.8441472 39.3832041,44.4615385 35.3076923,44.4615385"/>
          <path fill="#BA885F" d="M27.8974359,63.2053717 L27.8974359,63.2053717 C27.8974359,69.5982094 42.7179487,69.5982094 42.7179487,63.2053717 C42.7179487,56.8118847 27.8974359,56.8118847 27.8974359,63.2053717"/>
          <path fill="#6B503F" d="M17 59.2820513C22.0419473 59.2820513 26.1538462 55.1701524 26.1538462 50.1282051 26.1538462 45.0862578 22.0419473 40.974359 17 40.974359 11.9580527 40.974359 7.84615385 45.0862578 7.84615385 50.1282051 7.84615385 55.1701524 11.9580527 59.2820513 17 59.2820513M51.8714601 59.2820513C56.913223 59.2820513 61.025641 55.1701524 61.025641 50.1282051 61.025641 45.0855882 56.913223 40.974359 51.8714601 40.974359 46.8303667 40.974359 42.7179487 45.0855882 42.7179487 50.1282051 42.7179487 55.1701524 46.8303667 59.2820513 51.8714601 59.2820513"/>
          <path fill="#6B503F" d="M10.8977707 52.3076923C15.938864 52.3076923 20.0512821 48.1952743 20.0512821 43.1535114 20.0512821 38.1117485 15.938864 34 10.8977707 34 5.85533822 34 1.74358974 38.1117485 1.74358974 43.1535114 1.74358974 48.1952743 5.85533822 52.3076923 10.8977707 52.3076923M57.974359 52.3076923C63.0163063 52.3076923 67.1282051 48.196463 67.1282051 43.1538462 67.1282051 38.1118989 63.0163063 34 57.974359 34 52.9324117 34 48.8205128 38.1118989 48.8205128 43.1538462 48.8205128 48.196463 52.9324117 52.3076923 57.974359 52.3076923"/>
          <path fill="#6B503F" d="M9.15418093 43.5897436C14.1959438 43.5897436 18.3076923 39.4773256 18.3076923 34.4355627 18.3076923 29.3937998 14.1959438 25.2820513 9.15418093 25.2820513 4.11174847 25.2820513 0 29.3937998 0 34.4355627 0 39.4773256 4.11174847 43.5897436 9.15418093 43.5897436M58.8464886 42.7179487C63.8882515 42.7179487 68 38.6060499 68 33.5641026 68 28.5221553 63.8882515 24.4102564 58.8464886 24.4102564 53.8047257 24.4102564 49.6923077 28.5221553 49.6923077 33.5641026 49.6923077 38.6060499 53.8047257 42.7179487 58.8464886 42.7179487"/>
          <path fill="#DEA97E" d="M34.8717949,66.2564103 C2.91845922,66.2564103 -7.22392598,4.35897436 34.8717949,4.35897436 C76.9675157,4.35897436 66.8251305,66.2564103 34.8717949,66.2564103 Z"/>
          <path fill="#A17049" d="M23.1646402,49.4545455 C29.9688184,53.5278344 39.9708436,53.5278344 46.7757513,49.4545455 C42.2444954,59.5286195 27.6958961,59.5286195 23.1646402,49.4545455 Z"/>
          <path fill="#DEA97E" d="M64.7139665 31.4480101C62.5596047 30.9173824 59.9430751 33.7762745 58.8688653 37.8340157 57.7953157 41.89112 58.6707934 45.6106099 60.824495 46.1418746 62.9788568 46.6718653 65.5953864 43.8129732 66.6695962 39.755869 67.7431458 35.6987648 66.8676681 31.9786378 64.7139665 31.4480101M5.90138535 31.4480101C8.05571798 30.9173824 10.6722121 33.7762745 11.7464073 37.8340157 12.8199424 41.89112 11.9451368 45.6106099 9.79080414 46.1418746 7.63647151 46.6718653 5.01997743 43.8129732 3.94578215 39.755869 2.8722471 35.6987648 3.74771295 31.9786378 5.90138535 31.4480101"/>
          <path fill="#425156" d="M26.5900939 41.8461538C27.7903709 41.8461538 28.7692308 40.0845196 28.7692308 37.9230769 28.7692308 35.7623224 27.7903709 34 26.5900939 34 25.3891163 34 24.4102564 35.7623224 24.4102564 37.9230769 24.4102564 40.0845196 25.3891163 41.8461538 26.5900939 41.8461538M44.025641 41.8461538C45.2264257 41.8461538 46.2051282 40.0845196 46.2051282 37.9230769 46.2051282 35.7623224 45.2264257 34 44.025641 34 42.8248564 34 41.8461538 35.7623224 41.8461538 37.9230769 41.8461538 40.0845196 42.8248564 41.8461538 44.025641 41.8461538"/>
          <path fill="#6B503F" d="M42.3128592 28.574957C43.8006559 27.2114978 46.3451367 28.0579128 47.6476468 29.7643096 48.3007363 30.6182616 47.7522145 30.7011696 47.3119294 30.2172885 45.8889525 28.6563576 44.1113015 28.6563576 42.639404 29.5593008 41.859121 30.0386596 41.4867132 29.3331881 42.3128592 28.574957M28.2653705 28.4212901C26.7123903 27.254218 24.1863326 28.1767937 22.945181 29.815543 22.3227565 30.6376881 22.8786247 30.6820161 23.3019967 30.2131094 24.6700982 28.6990325 26.4591067 28.5979093 27.9775761 29.3431732 28.7830305 29.7386617 29.1287535 29.0702791 28.2653705 28.4212901M16.9996652 23.5384615C22.0420977 23.5384615 26.1538462 19.4260435 26.1538462 14.3849502 26.1538462 9.3425177 22.0420977 5.23076923 16.9996652 5.23076923 11.9579023 5.23076923 7.84615385 9.3425177 7.84615385 14.3849502 7.84615385 19.4260435 11.9579023 23.5384615 16.9996652 23.5384615"/>
          <path fill="#6B503F" d="M25.7182835,20.0512821 C30.7600464,20.0512821 34.8717949,15.938864 34.8717949,10.8971011 C34.8717949,5.85600777 30.7600464,1.74358974 25.7182835,1.74358974 C20.6765206,1.74358974 16.5641026,5.85600777 16.5641026,10.8971011 C16.5641026,15.938864 20.6765206,20.0512821 25.7182835,20.0512821"/>
          <path fill="#6B503F" d="M39.6666667,18.3076923 C44.708614,18.3076923 48.8205128,14.1957935 48.8205128,9.15384615 C48.8205128,4.11256844 44.708614,0 39.6666667,0 C34.6247194,0 30.5128205,4.11256844 30.5128205,9.15384615 C30.5128205,14.1957935 34.6247194,18.3076923 39.6666667,18.3076923"/>
          <path fill="#6B503F" d="M51.8714601,22.6666667 C56.9138926,22.6666667 61.025641,18.5542486 61.025641,13.5124857 C61.025641,8.47072283 56.9138926,4.35897436 51.8714601,4.35897436 C46.8303667,4.35897436 42.7179487,8.47072283 42.7179487,13.5124857 C42.7179487,18.5542486 46.8303667,22.6666667 51.8714601,22.6666667"/>
          <path fill="#6B503F" d="M58.8464886 33.1282051C63.8882515 33.1282051 68 29.0157871 68 23.9740242 68 18.9329308 63.8882515 14.8205128 58.8464886 14.8205128 53.8047257 14.8205128 49.6923077 18.9329308 49.6923077 23.9740242 49.6923077 29.0157871 53.8047257 33.1282051 58.8464886 33.1282051M10.0259758 33.1282051C15.0677387 33.1282051 19.1794872 29.0159375 19.1794872 23.974359 19.1794872 18.9327805 15.0677387 14.8205128 10.0259758 14.8205128 4.98354334 14.8205128.871794872 18.9327805.871794872 23.974359.871794872 29.0159375 4.98354334 33.1282051 10.0259758 33.1282051M37.0509473 23.5384615C42.0927102 23.5384615 46.2051282 19.4255244 46.2051282 14.3846154 46.2051282 9.34303686 42.0927102 5.23076923 37.0509473 5.23076923 32.0098539 5.23076923 27.8974359 9.34303686 27.8974359 14.3846154 27.8974359 19.4255244 32.0098539 23.5384615 37.0509473 23.5384615"/>
          <path fill="#6B503F" d="M24.8458191 24.4102564C29.887582 24.4102564 34 20.2983576 34 15.2564103 34 10.214463 29.887582 6.1025641 24.8458191 6.1025641 19.8040562 6.1025641 15.6923077 10.214463 15.6923077 15.2564103 15.6923077 20.2983576 19.8040562 24.4102564 24.8458191 24.4102564M49.256745 24.4102564C54.2985079 24.4102564 58.4102564 20.2978384 58.4102564 15.2560755 58.4102564 10.2149821 54.2985079 6.1025641 49.256745 6.1025641 44.2149821 6.1025641 40.1025641 10.2149821 40.1025641 15.2560755 40.1025641 20.2978384 44.2149821 24.4102564 49.256745 24.4102564"/>
          <path stroke="#6B503F" stroke-width=".216" d="M49.256745,24.4102564 C54.2985079,24.4102564 58.4102564,20.2978384 58.4102564,15.2560755 C58.4102564,10.2149821 54.2985079,6.1025641 49.256745,6.1025641 C44.2149821,6.1025641 40.1025641,10.2149821 40.1025641,15.2560755 C40.1025641,20.2978384 44.2149821,24.4102564 49.256745,24.4102564 Z"/>
          <path fill="#6B503F" d="M55.359293 27.8974359C59.4398882 27.8974359 62.7692308 24.5680933 62.7692308 20.4868609 62.7692308 16.4056285 59.4398882 13.0769231 55.359293 13.0769231 51.2774234 13.0769231 47.9487179 16.4056285 47.9487179 20.4868609 47.9487179 24.5680933 51.2774234 27.8974359 55.359293 27.8974359M15.256745 27.8974359C20.2985079 27.8974359 24.4102564 23.7850179 24.4102564 18.743255 24.4102564 13.7014921 20.2985079 9.58974359 15.256745 9.58974359 10.2149821 9.58974359 6.1025641 13.7014921 6.1025641 18.743255 6.1025641 23.7850179 10.2149821 27.8974359 15.256745 27.8974359"/>
          <path fill="#6B503F" d="M9.59006 35.7435897C12.9509474 35.7435897 15.6923077 32.8062657 15.6923077 29.2051282 15.6923077 25.6033126 12.9509474 22.6666667 9.59006 22.6666667 6.22917257 22.6666667 3.48717949 25.6033126 3.48717949 29.2051282 3.48717949 32.8062657 6.22917257 35.7435897 9.59006 35.7435897M59.2817243 34.8717949C62.6431538 34.8717949 65.3846154 32.1303333 65.3846154 28.7689038 65.3846154 25.4087822 62.6431538 22.6666667 59.2817243 22.6666667 55.9209488 22.6666667 53.1794872 25.4087822 53.1794872 28.7689038 53.1794872 32.1303333 55.9209488 34.8717949 59.2817243 34.8717949"/>
          <path fill="#6B503F" d="M57.9746874 40.1025641C60.1350892 40.1025641 61.8974359 38.3408743 61.8974359 36.1798156 61.8974359 34.0187569 60.1350892 32.2564103 57.9746874 32.2564103 55.8136287 32.2564103 54.0512821 34.0187569 54.0512821 36.1798156 54.0512821 38.3408743 55.8136287 40.1025641 57.9746874 40.1025641M9.15351773 39.2307692C11.3145764 39.2307692 13.0769231 37.4684226 13.0769231 35.3080207 13.0769231 33.146962 11.3145764 31.3846154 9.15351773 31.3846154 6.99311588 31.3846154 5.23076923 33.146962 5.23076923 35.3080207 5.23076923 37.4684226 6.99311588 39.2307692 9.15351773 39.2307692"/>
          <path fill="#6B503F" d="M57.5387726 43.5897436C58.9794268 43.5897436 60.1538462 42.4147022 60.1538462 40.97467 60.1538462 39.5333937 58.9794268 38.3589744 57.5387726 38.3589744 56.0981183 38.3589744 54.9230769 39.5333937 54.9230769 40.97467 54.9230769 42.4147022 56.0981183 43.5897436 57.5387726 43.5897436M9.58974359 42.7179487C11.0302265 42.7179487 12.2051282 41.5429073 12.2051282 40.1028751 12.2051282 38.6615988 11.0302265 37.4871795 9.58974359 37.4871795 8.14926065 37.4871795 6.97435897 38.6615988 6.97435897 40.1028751 6.97435897 41.5429073 8.14926065 42.7179487 9.58974359 42.7179487"/>
        </g>
        <g fill="#323232" transform="translate(42 160)">
          <path d="M4.436125,102.741795 L0.7475,24.9725616 L0.721625,6.81352055 L0.7029375,0.761917808 L21.979375,0.761917808 C20.424,34.7561507 18.8671875,68.7475616 17.3118125,102.741795 C13.0194375,102.741795 8.725625,102.741795 4.436125,102.741795 Z"/>
          <polygon points=".702 .762 .998 .762 .72 6.816 .72 6.814"/>
        </g>
        <path fill="#1A1A1A" d="M45.9992933 270C53.1590823 270 59 267.079996 59 263.5 59 259.920004 53.1590823 257 45.9992933 257 38.8395044 257 33.0000003 259.920004 33.0000003 263.5 32.9985867 267.079996 38.8380908 270 45.9992933 270zM42 97.8223106C34.1234274 97.1251524 18.0835243 91.8978767 11.3711037 88L9 94.1756367C15.0147854 99.6329463 31.464139 107.238181 39.2922053 110L42 97.8223106z"/>
        <path fill="#1A1A1A" d="M65.3506636,88.5572758 C57.1798088,91.8216166 46.9658858,94.8899849 36,97.1240706 L38.6701769,109 C49.0373301,108.43168 58.33471,107.180256 64.4241888,105.525689 C81.4639466,100.892341 83.2260931,81.4154804 65.3506636,88.5572758 Z"/>
        <path fill="#DEA97E" d="M11.9679097,85.3324735 C10.1031489,83.8707704 8.85203584,84.343383 8.35327185,85.955077 C5.88467033,83.449098 2.18176804,83.5863538 1.05394498,85.0508869 C-1.13585308,87.9035429 0.196519254,92.6508944 4.03251867,95.6592012 C7.86711707,98.6660931 12.7538833,98.7934438 14.9450824,95.9407878 C17.1362815,93.0895469 15.8039091,88.3407803 11.9679097,85.3324735 Z"/>
        <polygon fill="#F5F0F0" points="65.441 76 80 78.125 78.899 85.975 63 90"/>
        <polygon fill="#1A1A1A" points="39.987 158 75 162.944 74.446 170 39 164.994"/>
        <polygon fill="#323232" points="73.86 168 80 81 68.384 81.879 45.814 122.358 39 162.85"/>
        <path fill="#F5F0F0" d="M67,77.8589915 C61.4641491,104.342987 60.2443146,117.314027 47,125 L48.598164,113.54297 L63.0790041,86.0533592 L65.7676473,76 L67,77.8589915 Z"/>
        <path fill="#323232" d="M67,74.9220707 L64.6361538,92.2974622 L63.4682014,94.893446 L51.9549292,119.233604 L44,132 L48.0948187,113.231093 L62.9512847,86.4789748 L65.0482901,77.6866249 C65.3682196,76.3492999 65.22013,71 65.22013,71 L67,74.9220707 Z"/>
        <g transform="translate(7 85)">
          <path fill="#1A1A1A" d="M57.0565405,6.66373296 C47.0270816,22.8025349 28.76484,43.8024899 9,56.6043746 L12.5905519,62 C32.5836524,52.5534137 57.1153561,32.5983663 66.2569797,21.0958997 C77.1756744,7.35798141 67.1742229,-9.61646375 57.0565405,6.66373296 Z"/>
          <path fill="#DEA97E" d="M10.4280047,51.2258912 C12.3412019,52.2461088 12.4215055,53.4746208 11.2761231,54.4990893 C14.2797581,55.6354984 15.5617975,58.8010069 14.7714413,60.298743 C13.2358118,63.2106141 8.80361862,63.8723386 4.87015284,61.7738076 C0.935278231,59.6766937 -1.01032214,55.6142438 0.525307407,52.7023728 C2.06093695,49.7876677 6.49313012,49.1287772 10.4280047,51.2258912 Z"/>
          <path fill="#DEA97E" d="M7.97177791,51.0646228 C6.00221039,52.4534482 6.08207699,53.8192941 7.48259495,54.7916155 C4.32786407,56.4576315 3.34521959,60.1257392 4.417714,61.6682402 C6.50280286,64.6699414 11.4773514,64.7891478 15.526303,61.9353772 C19.5766808,59.0816067 21.1683081,54.3348973 19.0832193,51.3317598 C16.9967042,48.3300586 12.0207295,48.2108522 7.97177791,51.0646228 Z"/>
        </g>
        <g fill="#323232" transform="translate(48 159)">
          <path d="M37.6110833,101.951568 L8.64591667,29.9245405 L2.65908333,12.8404324 L0.655916667,7.14854054 L20.4708333,0.347783784 C30.1806667,32.8435676 39.8905,65.3393514 49.60175,97.8365405 C45.6053333,99.2082162 41.6075,100.579892 37.6110833,101.951568 Z"/>
          <polygon points=".656 7.149 .931 7.053 2.66 12.843 2.659 12.84"/>
        </g>
        <ellipse cx="85.5" cy="262" fill="#1A1A1A" rx="6.5" ry="13" transform="rotate(-109.087 85.5 262)"/>
      </g>
    </g>
  </g>
</svg>
