<svg xmlns="http://www.w3.org/2000/svg" width="350" height="290" viewBox="0 0 350 290">
  <g fill="none" fill-rule="evenodd" transform="translate(-56 -19)">
    <path fill="#E0EAF6" d="M248.433594,308.007812 C351.4347,308.007812 405.335937,285.731575 405.335937,182.730469 C405.335937,79.7293629 326.758918,19.6523438 223.757812,19.6523438 C120.756707,19.6523438 56,79.7293629 56,182.730469 C56,285.731575 145.432488,308.007812 248.433594,308.007812 Z"/>
    <g transform="translate(153 24)">
      <path fill="#F9EDF2" d="M44.9057813,20.3329687 C76.0120313,14.9667188 110.581875,63.3642187 124.228125,129.839062 C111.142969,150.12 92.5551563,164.102344 70.36875,167.92875 C48.1823438,171.757969 25.981875,164.811094 6.8596875,150.08625 C-2.55796875,82.8815625 13.7995313,25.6992188 44.9057813,20.3329687 Z"/>
      <path fill="#FFD8B8" d="M57.6,97.8932812 C47.930625,111.529687 38.6676562,141.555937 38.6957812,167.194687 L32.8007812,167.076562 C30.105,147.043125 32.7951562,118.223437 37.4259375,105.674062 C39.8067188,99.2179687 52.2590625,94.7601562 57.6,97.8932812 Z"/>
      <rect width="16.36" height="23.087" x="49.389" y="82.382" fill="#E7B791" transform="rotate(170.218 57.57 93.926)"/>
      <path fill="#E7B791" d="M62.6020312,263.991094 C64.09125,232.028437 65.5776562,200.064375 67.066875,168.100313 C60.181875,168.100313 53.2954688,168.100313 46.411875,168.100313 C47.8476562,200.064375 49.2834375,232.029844 50.7192187,263.991094 C54.6792187,263.991094 58.640625,263.991094 62.6020312,263.991094 Z"/>
      <path fill="#E7B791" d="M81.9646875,263.991094 C83.4553125,232.028437 84.9403125,200.064375 86.4295312,168.100313 C79.5445312,168.100313 72.6595313,168.100313 65.7745312,168.100313 C67.2103125,200.064375 68.6475,232.029844 70.081875,263.991094 C74.0432813,263.991094 78.0060938,263.991094 81.9646875,263.991094 Z"/>
      <path fill="#FFF" d="M81.8775 269.914219C88.374375 269.914219 93.673125 267.252187 93.673125 263.989687 93.673125 260.727187 88.374375 258.065156 81.8775 258.065156 75.3820312 258.065156 70.0832812 260.727187 70.0832812 263.989687 70.0832812 267.252187 75.3820312 269.914219 81.8775 269.914219zM50.8078125 269.914219C57.3032812 269.914219 62.6034375 267.252187 62.6034375 263.989687 62.6034375 260.727187 57.3032812 258.065156 50.8078125 258.065156 44.3123437 258.065156 39.0135937 260.727187 39.0135937 263.989687 39.0135937 267.252187 44.3123437 269.914219 50.8078125 269.914219z"/>
      <g fill="#1A1A1A" transform="translate(84.375 146.25)">
        <g transform="translate(12.656)">
          <polygon points="3.025 61.765 1.699 38.744 1.19 20.652 .62 1.557 23.815 .311 20.905 64.16"/>
          <polygon points="1.01 14.619 1.299 14.615 1.19 20.652 1.19 20.652"/>
        </g>
        <g transform="translate(0 61.469)">
          <path d="M19.5257813,54.6101562 L15.6839063,0.2965625 L33.6614063,0.5215625 L31.9964063,57.6335937 C27.79875,57.7053125 23.7220312,54.5384375 19.5257813,54.6101562 Z"/>
          <ellipse cx="14.589" cy="51.767" rx="6.495" ry="12.933" transform="rotate(-81.46 14.59 51.767)"/>
        </g>
      </g>
      <path fill="#FCF7F9" d="M80.1773438,144.071719 C80.82,145.939219 81.5892188,148.282031 85.1835938,153.64125 C91.7170313,163.386563 95.3535938,182.496094 100.442813,195.622031 C105.530625,208.747969 115.555781,242.728594 124.343438,251.078906 C133.131094,259.430625 124.686563,263.940469 115.555781,262.614375 C106.965,261.367031 101.511563,261.568125 96.8203125,264.292031 C90.1110938,268.187344 86.079375,267.629062 77.3057813,266.369062 C69.1382813,265.193437 63.5892188,264.735 52.5023438,266.792344 C43.8075,268.406719 39.1429688,266.976562 34.965,264.576094 C28.940625,261.115312 25.644375,261.791719 17.218125,262.614375 C8.791875,263.435625 -0.3571875,259.430625 8.4290625,251.078906 C17.2167187,242.728594 26.6189063,208.747969 31.7067188,195.622031 C36.7945312,182.496094 40.4170313,163.382344 46.9378125,153.64125 C50.4126563,148.445156 52.3096875,145.929375 53.1225,144.071719 L80.1773438,144.071719 Z"/>
      <path fill="#FFE0E9" d="M36.8578125 265.5675C36.208125 265.262344 35.5809375 264.930469 34.9621875 264.576094 29.289375 261.316406 26.0339062 261.728437 18.6370312 262.472344 26.5359375 250.139531 42.2915625 210.117656 45.6398437 192.102188 47.5832813 212.689688 40.528125 252.257344 36.8578125 265.5675zM114.235312 262.430156C106.396875 261.395156 101.264062 261.710156 96.8175 264.292031 96.4870313 264.484688 96.1607812 264.666094 95.8429688 264.83625 92.1220313 250.943906 85.3495312 212.324062 87.2592188 192.100781 90.6046875 210.09375 106.326562 250.05375 114.235312 262.430156zM76.3382812 266.23125C69.7303125 265.305938 64.6959375 264.923437 56.5903125 266.110312 61.84125 244.996875 66.1457812 202.630781 66.4495312 191.664844 66.7532812 202.653281 71.0732812 245.154375 76.3382812 266.23125z"/>
      <ellipse cx="49.924" cy="49.419" fill="#FFF4C7" rx="15.301" ry="27.432" transform="rotate(-99.788 49.924 49.419)"/>
      <ellipse cx="48.374" cy="41.507" fill="#91613A" rx="17.527" ry="23.326" transform="rotate(-99.788 48.374 41.507)"/>
      <path fill="#FFF" d="M32.5448437 41.4351562C32.5096875 41.495625 32.4675 41.5532812 32.4239063 41.6053125 32.5546875 41.72625 32.6573437 41.8795312 32.7220313 42.058125 32.9371875 42.6571875 32.6278125 43.3167187 32.0273438 43.5332812 31.9598438 43.5571875 31.8923438 43.5740625 31.8248438 43.5853125 31.8473438 43.7610937 31.8276563 43.9453125 31.7615625 44.1239062 31.5421875 44.7229687 30.8784375 45.0309375 30.2807813 44.8073437 30.2132813 44.7820312 30.15 44.7553125 30.0909375 44.71875 29.9939063 44.8678125 29.8617188 44.9957812 29.6971875 45.09 29.1445313 45.4092187 28.4385938 45.2165625 28.1235938 44.6639062 28.0884375 44.600625 28.0589063 44.5373437 28.035 44.47125 27.86625 44.5232812 27.680625 44.5373437 27.4935938 44.5035937 26.8664063 44.3910937 26.4501563 43.7892187 26.5626563 43.1634375 26.5767188 43.0945312 26.5935938 43.025625 26.6189063 42.96375 26.454375 42.8920312 26.3039063 42.7851562 26.1829688 42.6403125 25.7751563 42.1509375 25.84125 41.4239062 26.330625 41.0146875 26.3840625 40.9710938 26.443125 40.9317187 26.5021875 40.8965625 26.420625 40.7404687 26.375625 40.5590625 26.3770313 40.3692188 26.3784375 39.7321875 26.8973438 39.2189062 27.534375 39.2189062 27.6060938 39.2217187 27.675 39.2273437 27.7410938 39.2414062 27.781875 39.0684375 27.8620313 38.9010937 27.9857813 38.7548437 28.3964063 38.2682812 29.1248438 38.2078125 29.61 38.6198437 29.6648438 38.6634375 29.7126563 38.7126562 29.75625 38.7675 29.8982813 38.660625 30.0670312 38.5832812 30.2540625 38.55375 30.88125 38.4440625 31.4775 38.8645312 31.5857813 39.493125 31.5984375 39.5648437 31.6040625 39.63375 31.6026563 39.7026562 31.78125 39.7110937 31.9584375 39.763125 32.1229688 39.8559375 32.6784375 40.1765625 32.8640625 40.8825 32.5448437 41.4351562zM38.750625 36.5076562C38.7140625 36.568125 38.6732812 36.6257812 38.6296875 36.6778125 38.7604688 36.79875 38.863125 36.9520312 38.9278125 37.130625 39.1429688 37.7296875 38.8321875 38.390625 38.233125 38.6057812 38.165625 38.6296875 38.098125 38.649375 38.0292188 38.660625 38.0517188 38.8364062 38.0334375 39.020625 37.9673438 39.1992188 37.7465625 39.7954687 37.0842188 40.1034375 36.4851563 39.8826562 36.4190625 39.8573437 36.3557813 39.8278125 36.2967188 39.7926562 36.1996875 39.9403125 36.0675 40.0696875 35.9029688 40.1667187 35.3489062 40.483125 34.644375 40.2904687 34.329375 39.7378125 34.2942187 39.6745312 34.2646875 39.61125 34.2407813 39.5479687 34.070625 39.6 33.8864063 39.61125 33.699375 39.5775 33.0721875 39.465 32.6559375 38.8659375 32.7684375 38.2373437 32.7810937 38.1684375 32.799375 38.0995312 32.8246875 38.0376562 32.6615625 37.96875 32.5096875 37.8590625 32.38875 37.7142187 31.9809375 37.2248437 32.0470312 36.4978125 32.535 36.0914062 32.5898438 36.045 32.6489063 36.005625 32.7079688 35.9732812 32.6264062 35.814375 32.5814063 35.6357812 32.5814063 35.4459375 32.5842187 34.8089062 33.103125 34.2928125 33.7401562 34.295625 33.8104687 34.295625 33.8807812 34.3040625 33.946875 34.3153125 33.98625 34.1423437 34.0678125 33.975 34.1901563 33.8315625 34.6021875 33.345 35.330625 33.2817187 35.8157813 33.69375 35.8692188 33.7401562 35.9184375 33.789375 35.9620313 33.8414062 36.1040625 33.7345312 36.2728125 33.66 36.4598438 33.6276562 37.0870313 33.5179687 37.6832813 33.94125 37.7915625 34.5670312 37.8042188 34.63875 37.8098438 34.7076562 37.8084375 34.7751562 37.985625 34.7864062 38.1642188 34.835625 38.32875 34.93125 38.8842187 35.251875 39.0698438 35.9578125 38.750625 36.5076562zM46.0814063 33.631875C46.04625 33.6923438 46.0040625 33.75 45.9604688 33.8020313 46.09125 33.9229688 46.1953125 34.0734375 46.2585938 34.2548438 46.47375 34.8539063 46.1629688 35.5120312 45.5639063 35.73 45.4964063 35.7553125 45.4289063 35.7707813 45.3614063 35.7820313 45.3839063 35.9578125 45.3642188 36.1420313 45.298125 36.320625 45.07875 36.9196875 44.415 37.2234375 43.8173438 37.0040625 43.7498438 36.97875 43.6865625 36.9520313 43.6275 36.9154688 43.531875 37.0645313 43.3982813 37.1925 43.23375 37.2867188 42.6810938 37.6045313 41.9751563 37.4132813 41.6601563 36.8578125 41.625 36.7973438 41.5954687 36.7340625 41.5715625 36.6679688 41.4028125 36.72 41.2171875 36.7340625 41.0301562 36.7003125 40.404375 36.5878125 39.9867187 35.9859375 40.0992187 35.3601563 40.1132812 35.29125 40.1301562 35.2223438 40.1554687 35.1590625 39.9923437 35.0873438 39.8404687 34.9804688 39.7209375 34.835625 39.313125 34.34625 39.3792188 33.6192188 39.8685938 33.21 39.9234375 33.1664063 39.9810937 33.1270313 40.0401563 33.091875 39.9585937 32.9357812 39.9135937 32.754375 39.915 32.5645313 39.9178125 31.9275 40.4353125 31.4142187 41.0723437 31.4170313 41.1426562 31.4170313 41.2129687 31.4226563 41.2790625 31.4367188 41.3198437 31.26375 41.4 31.0964062 41.52375 30.9501562 41.934375 30.4635937 42.6628125 30.403125 43.1479688 30.8151562 43.2028125 30.85875 43.2520313 30.9079687 43.2942188 30.9628125 43.43625 30.8559375 43.605 30.7785937 43.7920313 30.7490625 44.4192188 30.639375 45.0154688 31.0598437 45.12375 31.6884375 45.1364063 31.7573437 45.1420313 31.8290625 45.140625 31.8965625 45.3192188 31.905 45.4964063 31.9570312 45.6609375 32.0498438 46.215 32.3732813 46.400625 33.0792188 46.0814063 33.631875zM62.926875 36.19125C62.9803125 36.2376563 63.0379688 36.2798437 63.0970313 36.3121875 63.0154688 36.4682812 62.9676563 36.646875 62.9676563 36.8395312 62.9648438 37.4765625 63.4795313 37.9926562 64.1165625 37.9954687 64.1882813 37.9954687 64.2571875 37.9898437 64.3246875 37.9785937 64.3626563 38.1515625 64.4428125 38.3189062 64.56375 38.4651562 64.9715625 38.9545312 65.7 39.020625 66.1879687 38.6128125 66.2428125 38.5664062 66.2920312 38.5171875 66.3370312 38.4651562 66.4790625 38.5720312 66.6464062 38.6521875 66.8320312 38.6845312 67.4592187 38.7970312 68.0596875 38.379375 68.1721875 37.7535937 68.1848437 37.681875 68.1904688 37.6129687 68.1904688 37.5454687 68.3676563 37.5370312 68.5476563 37.4878125 68.7107813 37.3935937 69.2648438 37.0771875 69.4546875 36.3726562 69.1396875 35.82 69.1045313 35.7567187 69.06375 35.6990625 69.0201563 35.6470312 69.1509375 35.5289062 69.2564063 35.375625 69.3225 35.1970312 69.541875 34.6007812 69.2353125 33.9370312 68.6390625 33.71625 68.5715625 33.6909375 68.5040625 33.6754687 68.4365625 33.6614062 68.4590625 33.485625 68.4407813 33.3014062 68.3775 33.1228125 68.1623438 32.52375 67.5 32.2115625 66.9009375 32.428125 66.8334375 32.4534375 66.7701563 32.4829687 66.7110938 32.5167187 66.6154688 32.3676562 66.4832813 32.236875 66.3201563 32.1398437 65.7689063 31.820625 65.0629688 32.0076562 64.74375 32.5575 64.7071875 32.6207812 64.6776563 32.6840625 64.6551563 32.7473437 64.485 32.6953125 64.3007813 32.6784375 64.11375 32.7121875 63.4851563 32.821875 63.0646875 33.418125 63.1729688 34.0439062 63.185625 34.115625 63.2025 34.1817187 63.2264063 34.2478125 63.061875 34.3167187 62.9114063 34.4235937 62.7890625 34.5670312 62.3798438 35.055 62.4403125 35.7820313 62.926875 36.19125zM55.42875 33.6290625C55.4835937 33.6754688 55.5398437 33.71625 55.6003125 33.75 55.5173438 33.9089063 55.4709375 34.0875 55.4709375 34.2773438 55.468125 34.914375 55.9814062 35.4304688 56.6198437 35.4332813 56.6901562 35.4332813 56.7604687 35.4276562 56.8265625 35.4164063 56.8645312 35.589375 56.9446875 35.7567188 57.065625 35.9029687 57.4748437 36.3923438 58.201875 36.4570312 58.69125 36.050625 58.7446875 36.0042187 58.7939062 35.955 58.8389063 35.9029687 58.9795313 36.0098438 59.1496875 36.09 59.3353125 36.1223437 59.9610937 36.2348437 60.5615625 35.8171875 60.6740625 35.1914062 60.6867187 35.1225 60.69375 35.0507812 60.69375 34.9832813 60.8709375 34.9748438 61.0495312 34.925625 61.2140625 34.8328125 61.7667187 34.5164063 61.9579687 33.8104688 61.6429688 33.2592188 61.6078125 33.19875 61.565625 33.1382813 61.5220313 33.08625 61.6542187 32.968125 61.7582813 32.8148438 61.824375 32.63625 62.04375 32.04 61.7371875 31.3748438 61.1409375 31.1554688 61.0734375 31.1315625 61.0059375 31.1146875 60.9384375 31.100625 60.9623437 30.9248438 60.9440625 30.740625 60.879375 30.5620313 60.6642187 29.9629688 60.0032812 29.6521875 59.4042187 29.8673438 59.3367187 29.8926563 59.2734375 29.9221875 59.214375 29.9559375 59.11875 29.806875 58.9865625 29.6760937 58.8220312 29.581875 58.2707812 29.2598437 57.5648437 29.446875 57.245625 29.9967187 57.2104687 30.0571875 57.1795313 30.1232813 57.1570312 30.1865625 56.9882812 30.1345313 56.8040625 30.1176563 56.615625 30.1514063 55.9884375 30.2610938 55.5665625 30.8573438 55.6748437 31.483125 55.6875 31.5548437 55.704375 31.6209375 55.7282812 31.6870313 55.5651562 31.7559375 55.4132812 31.8628125 55.2909375 32.0090625 54.8803125 32.4914063 54.9421875 33.2198438 55.42875 33.6290625zM47.5579688 33.3759375C47.6114062 33.4223438 47.6690625 33.4617188 47.728125 33.496875 47.6465625 33.6529688 47.59875 33.8315625 47.59875 34.0214063 47.5959375 34.6584375 48.110625 35.1773438 48.7476562 35.1801563 48.819375 35.1801563 48.8882812 35.1745313 48.9557812 35.1604688 48.99375 35.3334375 49.0739062 35.5007813 49.1948437 35.6498438 49.6026562 36.1392188 50.3310937 36.2053125 50.8190625 35.7960938 50.8739062 35.7525 50.923125 35.7032813 50.968125 35.6498438 51.10875 35.7567188 51.2775 35.8340625 51.463125 35.8664063 52.0889062 35.9789063 52.6907812 35.5640625 52.801875 34.9354688 52.8159375 34.8665625 52.8215625 34.7948438 52.8215625 34.7301563 52.99875 34.7217188 53.1773437 34.6725 53.341875 34.576875 53.8945312 34.2604688 54.0857812 33.5573438 53.7707812 33.0032813 53.735625 32.9428125 53.6948437 32.8851563 53.65125 32.833125 53.7820313 32.7121875 53.8875 32.5617188 53.9521875 32.383125 54.1715625 31.7840625 53.8664062 31.123125 53.26875 30.9023438 53.2026562 30.8784375 53.1351562 30.85875 53.0676562 30.8475 53.0901562 30.6717188 53.071875 30.4875 53.0085937 30.3089063 52.7920312 29.7070313 52.1310937 29.39625 51.5320312 29.6114063 51.4645312 29.6367188 51.40125 29.66625 51.3421875 29.7014063 51.2465625 29.5509375 51.114375 29.4215625 50.95125 29.3245313 50.4 29.0025 49.6940625 29.1895313 49.3734375 29.7421875 49.3382812 29.8026563 49.30875 29.8659375 49.28625 29.9320313 49.1160937 29.8771875 48.931875 29.863125 48.7448437 29.896875 48.11625 30.00375 47.6957812 30.6 47.8040625 31.2285938 47.8167187 31.2975 47.8335937 31.3664063 47.8575 31.4282813 47.6929687 31.4971875 47.5425 31.6040625 47.4201562 31.7503125 47.0109375 32.236875 47.0714062 32.9639063 47.5579688 33.3759375z"/>
      <ellipse cx="52.583" cy="65.89" fill="#FFD8B8" rx="27.498" ry="35.674" transform="rotate(-99.788 52.583 65.89)"/>
      <path fill="#91613A" d="M18.9098438,75.7814063 C20.4820313,73.0617187 23.22,83.3540625 22.9429688,70.9059375 C22.6659375,58.4142188 29.9854688,42.2789063 47.5903125,42.5123438 C67.8684375,35.1154688 80.0325,51.5320313 82.3753125,61.104375 C83.8645313,67.1878125 86.2607813,61.2520313 87.5179688,62.6892188 C87.6557813,42.3998438 67.8276563,30.9628125 46.215,35.1379688 C28.614375,38.536875 12.279375,50.4745312 18.9098438,75.7814063 Z"/>
      <ellipse cx="63.132" cy="63.267" fill="#666" rx="3.47" ry="1.983" transform="rotate(-99.788 63.132 63.267)"/>
      <ellipse cx="41.756" cy="66.954" fill="#666" rx="3.47" ry="1.981" transform="rotate(-99.788 41.756 66.954)"/>
      <path fill="#91613A" d="M79.7695312 97.0425C80.6596875 60.8484375 59.0160937 41.7571875 48.51 42.2704688 62.1464062 35.4642188 85.7671875 55.7310938 79.7695312 97.0425zM37.4090625 104.350781C24.4420313 70.5459375 38.435625 45.3051562 48.51 42.2690625 33.37875 40.426875 17.915625 67.4395313 37.4090625 104.350781z"/>
      <path fill="#E7B791" d="M66.6435937,73.9842187 C62.3123438,78.7992187 49.15125,80.9142187 42.0496875,78.2282812 C49.66875,84.72375 62.9620312,82.7029687 66.6435937,73.9842187 Z"/>
      <path fill="#FFD8B8" d="M56.548125,148.667344 C52.6528125,138.598594 47.4792188,129.040312 43.5839063,118.96875 C41.7515625,114.231094 41.1975,108.974531 39.36375,104.234062 L49.7292187,97.4010938 L65.8504688,94.6209375 C69.91875,95.889375 75.2132812,96.3098437 78.0525,98.4304688 C77.9245313,103.259531 79.0607812,108.037969 78.9257812,112.87125 C78.6248437,123.619219 77.0414062,134.431875 76.7278125,145.186875 L56.548125,148.667344 Z"/>
      <path fill="#FCF7F9" d="M53.7145313,149.155312 L44.0367187,120.047344 C43.8932812,119.695781 43.7864063,119.327344 43.7203125,118.94625 C43.0495313,115.059375 46.7775,111.173906 52.0467188,110.266875 C55.485,109.670625 58.730625,110.494687 60.755625,112.217344 C62.0859375,109.915312 64.8703125,108.053437 68.3085938,107.46 C73.5764062,106.550156 78.3914063,108.961875 79.0607813,112.84875 C79.1240625,113.22 79.149375,113.587031 79.1353125,113.955469 L79.875,144.639844 L53.7145313,149.155312 Z"/>
      <ellipse cx="17.432" cy="71.946" fill="#FFD8B8" rx="8.102" ry="5.185" transform="rotate(-112.829 17.432 71.946)"/>
      <ellipse cx="87.802" cy="60.187" fill="#FFD8B8" rx="8.102" ry="5.185" transform="rotate(-86.744 87.802 60.187)"/>
      <path fill="#FFE0E9" fill-rule="nonzero" d="M13.2960937,181.544063 C10.839375,183.019219 9.42328125,184.318594 9.14484375,185.466094 L9.1434375,185.477344 C8.93671875,186.33375 9.579375,187.433438 11.1417187,188.825625 C14.86125,192.137344 14.6404687,195.236719 12.7603125,197.96625 C11.3371875,200.034844 8.89875,201.570469 6.90328125,202.753125 C6.48984375,203.000625 6.4096875,203.349375 6.55171875,203.764219 C6.99328125,205.046719 8.28421875,206.659688 9.99421875,208.395 L6.16640625,212.175 C3.920625,209.898281 2.17265625,207.63 1.4484375,205.517813 C0.42328125,202.535156 1.04625,199.970156 4.16109375,198.12375 C5.6925,197.215313 7.53890625,196.069219 8.33203125,194.918906 C8.66671875,194.432344 8.58796875,193.774219 7.554375,192.855938 C4.36359375,190.013906 3.19640625,187.164844 3.915,184.2075 L3.91640625,184.2075 C4.5675,181.548281 6.811875,179.164688 10.53,176.931563 L13.2960937,181.544063 Z"/>
      <path fill="#FFE0E9" fill-rule="nonzero" d="M21.2259375,182.732344 C19.7634375,185.190469 19.1348438,187.005937 19.4371875,188.161875 C19.6579688,189.012656 20.7421875,189.675 22.7685938,190.15875 C27.6257813,191.314687 28.8984375,194.1525 28.535625,197.454375 C28.2642188,199.943437 26.8453125,202.450781 25.6485938,204.436406 C25.3982813,204.854062 25.4939063,205.202812 25.8117188,205.496719 C26.7932813,206.40375 28.6973438,207.210937 31.03875,207.929531 L29.458125,213.090469 C26.415,212.151094 23.805,210.981094 22.15125,209.451094 C19.8351563,207.306562 19.1671875,204.751406 21.0304688,201.65625 C21.94875,200.131875 23.0357813,198.241875 23.1876563,196.846875 C23.2523438,196.2675 22.8740625,195.731719 21.5367188,195.4125 C17.3714063,194.421094 14.9920313,192.459375 14.2228125,189.516094 C13.5323438,186.87375 14.3817188,183.709687 16.605,179.974687 L21.2259375,182.732344 Z"/>
      <path fill="#FFD8B8" d="M74.2823437,96.8695313 C71.1703125,113.294531 55.9701562,140.795156 37.485,158.563125 L41.6615625,162.727031 C57.96,150.768281 76.8501562,128.836406 82.6776562,116.796094 C85.6757812,110.601563 83.2260938,96.0173438 74.2823437,96.8695313 Z"/>
      <path fill="#FFF" d="M40.9359375,157.653281 C40.921875,158.065312 40.8726562,158.466094 40.7882813,158.854219 C41.7853125,159.115781 42.7359375,159.606562 43.5557813,160.343437 C46.3021875,162.801562 46.535625,167.023125 44.0760938,169.772344 C43.801875,170.0775 43.5051563,170.354531 43.1901563,170.599219 C43.7878125,171.437344 44.1984375,172.425937 44.3545313,173.515781 C44.87625,177.166406 42.3421875,180.549844 38.6915625,181.074375 C38.2851563,181.132031 37.8801563,181.151719 37.4835938,181.137656 C37.400625,182.162812 37.08,183.18375 36.4992188,184.1175 C34.554375,187.252031 30.436875,188.2125 27.3051563,186.267656 C26.955,186.051094 26.6315625,185.806406 26.3376563,185.539219 C25.6148438,186.271875 24.7134375,186.849844 23.6671875,187.190156 C20.1642188,188.340469 16.3898438,186.432187 15.2409375,182.927812 C15.1129688,182.538281 15.0229688,182.141719 14.9695313,181.749375 C13.944375,181.845 12.8826563,181.705781 11.8617188,181.299375 C8.4375,179.925469 6.7753125,176.04 8.14640625,172.614375 C8.29828125,172.231875 8.48390625,171.873281 8.69625,171.534375 C7.84828125,170.952187 7.12546875,170.160469 6.6065625,169.191562 C4.865625,165.938906 6.09046875,161.894531 9.3403125,160.152187 C9.70453125,159.956719 10.0771875,159.800625 10.4554688,159.679687 C10.1840625,158.688281 10.1348438,157.616719 10.36125,156.540937 C11.1178125,152.9325 14.6573438,150.619219 18.2671875,151.374375 C18.669375,151.460156 19.0575,151.578281 19.4245313,151.72875 C19.8534375,150.792187 20.5045313,149.942812 21.369375,149.262187 C24.2690625,146.985469 28.4667188,147.4875 30.7448438,150.388594 C31.0007813,150.712031 31.2201563,151.050937 31.4057813,151.4025 C32.3353125,150.962344 33.3801563,150.728906 34.48125,150.765469 C38.1628125,150.883594 41.0540625,153.9675 40.9359375,157.653281 Z"/>
      <g transform="translate(73.125)">
        <path fill="#FFD8B8" d="M36.5371875,19.2782813 C57.2878125,16.9214063 75.5817188,27.9773438 77.3985937,43.970625 C79.2154687,59.9667188 63.8676562,74.8448438 43.1170312,77.2017188 C22.3664062,79.5585938 4.75734375,68.0723438 2.94046875,52.07625 C1.1221875,36.0815625 15.7851562,21.6351563 36.5371875,19.2782813 Z"/>
        <path fill="#91613A" d="M43.2323437,78.2254688 C42.4982812,78.3084375 41.7754687,78.3717188 41.0625,78.4265625 L41.0625,67.404375 C41.2228125,67.3495313 41.3929687,67.3115625 41.5757812,67.291875 C44.6610937,66.9403125 45.59625,72.331875 50.0540625,71.7173437 C54.5104688,71.1014062 53.949375,60.8878125 53.4684375,57.6028125 C53.08875,55.006875 47.098125,54.3951563 41.0625,55.0532812 L41.0625,52.8721875 C48.1921875,52.3096875 55.4175,54.2432813 55.5257812,59.0934375 C55.63125,63.7790625 59.675625,70.6978125 65.1473437,66.234375 C69.8948438,62.35875 71.2715625,51.620625 71.2659375,45.1139063 C71.2659375,44.1253125 78.8625,41.5926562 78.5460937,45.5371875 C77.07375,52.1775 71.35875,75.0290625 43.2323437,78.2254688 Z M41.0625,78.4265625 C14.4660938,80.409375 2.655,61.695 2.345625,46.648125 C1.1503125,42.87375 8.91703125,50.3423438 8.8903125,51.3309375 C8.68078125,59.1834375 13.6898438,68.7445313 19.1840625,71.4557813 C25.5178125,74.5790625 28.2234375,67.0907813 27.275625,62.499375 C26.1070313,56.8392188 33.5320313,53.4628125 41.0625,52.8721875 L41.0625,55.0532812 C34.6176563,55.7564062 28.1207813,57.9121875 28.3429688,60.6529687 C28.6101563,63.9632812 30.0375,73.8829688 34.5192188,73.4821875 C38.7351563,73.1025 38.5326563,68.2692187 41.0625,67.404375 L41.0625,78.4265625 Z"/>
        <ellipse cx="28.093" cy="46.74" fill="#666" rx="3.677" ry="2.101" transform="rotate(-96.483 28.093 46.74)"/>
        <ellipse cx="50.928" cy="44.143" fill="#666" rx="3.676" ry="2.101" transform="rotate(-96.488 50.928 44.143)"/>
        <path fill="#91613A" d="M61.475625,24.7570313 C45.10125,22.1259375 5.47734375,18.3628125 9.09984375,54.4359375 C9.24046875,55.8309375 3.11484375,46.1742188 2.2753125,47.424375 C3.56203125,29.9123438 23.7051563,17.8790625 42.0482813,18.3220313 C48.819375,18.4851562 55.1053125,19.546875 61.475625,24.7570313 Z"/>
        <path fill="#E7B791" d="M53.4473438,57.5957813 C48.1626563,59.2551562 34.9228125,60.6670312 28.6495313,60.4110938 C35.8832812,67.3354688 49.2679687,66.0825 53.4473438,57.5957813 Z"/>
        <path fill="#91613A" d="M74.8828125,36.585 C49.7629687,14.3353125 14.2214062,48.8953125 7.64015625,9.613125 C34.216875,30.7814062 62.17875,3.5296875 74.8828125,36.585 Z"/>
        <path fill="#91613A" d="M75.3932813,41.0807812 C74.7759375,39.6632812 71.7735938,50.8204687 70.9889063,45.3276562 C65.8307813,9.21515625 12.8404687,40.8304687 17.5359375,0 C25.6303125,11.0742187 27.4865625,15.6965625 41.2115625,16.9101562 C55.1925,18.1434375 72.4598438,20.5382812 75.3932813,41.0807812 Z"/>
        <path fill="#FFD8B8" d="M77.3170312 34.7990625C75.2259375 34.4728125 73.2248437 37.8098437 72.8479687 42.2564062 72.4710937 46.7001563 73.8632812 50.5673437 75.954375 50.8964062 78.0454687 51.2226562 80.0465625 47.885625 80.4234375 43.4390625 80.7989062 38.9953125 79.408125 35.1267188 77.3170312 34.7990625zM2.7928125 40.7067187C4.5196875 40.2721875 6.3984375 43.4995312 6.98625 47.9165625 7.576875 52.3335937 6.65578125 56.266875 4.92890625 56.7028125 3.200625 57.1373437 1.32328125 53.91.7340625 49.4929687.14625 45.0773437 1.06734375 41.14125 2.7928125 40.7067187z"/>
      </g>
      <g transform="translate(97.031 142.031)">
        <g fill="#323232">
          <polygon points="11.985 64.918 7.092 42.38 3.776 24.59 .243 5.818 22.961 .977 30.019 64.503"/>
          <polygon points="2.661 18.661 2.946 18.608 3.777 24.59 3.776 24.59"/>
        </g>
        <g transform="translate(10.844 61.875)">
          <path fill="#323232" d="M13.3859375,56.0967188 L1.14171875,3.0403125 L18.9364062,0.466875 L26.174375,57.1457812 C22.04,57.8671875 17.5203125,55.3739063 13.3859375,56.0967188 Z"/>
          <ellipse cx="13.245" cy="57.227" fill="#1A1A1A" rx="6.494" ry="12.934" transform="rotate(-90.407 13.245 57.227)"/>
        </g>
      </g>
      <rect width="15.041" height="7.951" x="111.07" y="75.495" fill="#FFF" transform="rotate(-175.003 118.591 79.47)"/>
      <polygon fill="#1A1A1A" points="92.101 142.665 126.83 145.706 126.668 152.768 91.509 149.691"/>
      <path fill="#FFF" d="M117.315,77.9779688 C113.184844,104.907656 106.610625,120.373594 93.6660938,128.833594 L95.4140625,114.260625 L109.285313,85.1104688 L111.445312,74.8546875 L117.315,77.9779688 Z"/>
      <g transform="translate(108.281 77.344)">
        <path fill="#212E36" d="M1.90828125,3.72375 C2.71125,2.83078125 5.00484375,-0.54703125 5.265,0.41625 C5.62078125,1.74515625 4.708125,8.983125 4.033125,10.1798438 C3.54234375,11.0503125 2.16,7.2084375 1.603125,6.1425 C1.4878125,5.47875 1.62984375,4.3425 1.90828125,3.72375 Z"/>
        <path fill="#405059" d="M0.91546875,3.02625 L1.760625,3.133125 C1.9771875,3.1584375 2.13328125,3.358125 2.10515625,3.5746875 L1.75640625,6.33796875 C1.72828125,6.55453125 1.53,6.70921875 1.3134375,6.68109375 L0.46828125,6.57421875 C0.25171875,6.54609375 0.095625,6.34921875 0.12375,6.13265625 L0.4725,3.369375 C0.49921875,3.1528125 0.69890625,2.99953125 0.91546875,3.02625 Z"/>
      </g>
      <polygon fill="#323232" points="126.727 150.42 126.215 79.208 114.683 80.722 94.392 122.3 91.689 147.189"/>
      <path fill="#1A1A1A" d="M110.271094,90.84375 C102.602813,108.171562 87.4448438,131.468906 69.6248438,146.915156 L73.963125,151.710469 C92.4876563,139.535156 114.025781,116.364375 121.470469,103.725 C130.363594,88.6317188 118.004063,73.3640625 110.271094,90.84375 Z"/>
      <path fill="#FFD8B8" d="M64.09125,145.033594 C62.0479687,146.234531 62.02125,147.5775 63.3248437,148.632188 C60.0946875,150.013125 58.8445312,153.518906 59.7796875,155.107969 C61.6007812,158.1975 66.4804687,158.700938 70.6795312,156.22875 C74.88,153.756563 76.8107812,149.246719 74.9910937,146.157188 C73.1714062,143.063437 68.293125,142.561406 64.09125,145.033594 Z"/>
      <path fill="#1A1A1A" d="M133.917188,185.227031 C124.364531,181.126406 114.655781,162.507656 112.312969,151.3125 L125.346094,134.679375 C125.344687,134.677969 133.207031,169.565625 133.917188,185.227031 Z"/>
      <path fill="#323232" d="M114.325312,148.740469 L125.344688,134.677969 C125.344688,134.677969 132.226875,164.393437 133.609219,181.049062 C125.1675,177.827344 117.16875,158.707969 114.325312,148.740469 Z"/>
      <g fill-rule="nonzero" transform="rotate(-4 111.454 -1206.677)">
        <path fill="#6592C9" d="M42.1758028,74.5403485 C38.0067876,74.5403485 34.6150716,71.1486326 34.6150716,66.9796174 L34.6150716,62.3813162 L37.2943873,62.3813162 L37.2943873,66.9796174 C37.2943873,69.6714365 39.4839836,71.8610328 42.1758028,71.8610328 C44.867622,71.8610328 47.0572183,69.6711388 47.0572183,66.9796174 L47.0572183,0 L49.736534,0 L49.736534,66.9793197 C49.736534,71.1486326 46.3445203,74.5403485 42.1758028,74.5403485 Z"/>
        <rect width="7.343" height="2.679" x="32.455" y="60.384" fill="#4D4D4D"/>
        <g transform="translate(.73 26.198)">
          <path fill="#FFF" d="M44.0232406,10.4719565 L44.0232406,17.5215338 C44.0232406,22.3145318 40.1352558,26.2025166 35.3422578,26.2025166 L10.4901163,26.2025166 C5.69711825,26.2025166 1.80913349,22.3145318 1.80913349,17.5215338 L1.80913349,10.4719565 C1.80913349,5.67598142 5.69711825,1.79097368 10.4901163,1.79097368 L35.3422578,1.79097368 C40.1352558,1.79097368 44.0232406,5.67598142 44.0232406,10.4719565 Z" opacity=".46"/>
          <path fill="#FFF" d="M44.0232406,10.4719565 L44.0232406,17.5215338 C44.0232406,22.3145318 40.1352558,26.2025166 35.3422578,26.2025166 L25.2144445,26.2025166 L11.121244,1.79097368 L35.3422578,1.79097368 C40.1352558,1.79097368 44.0232406,5.67598142 44.0232406,10.4719565 Z" opacity=".46"/>
          <path fill="#6592C9" d="M35.4592546,27.8386853 L10.6074108,27.8386853 C4.91803279,27.8386853 0.289366094,23.2100187 0.289366094,17.5206407 L0.289366094,10.470468 C0.289366094,4.78108999 4.91803279,0.152423292 10.6074108,0.152423292 L35.4592546,0.152423292 C41.1486326,0.152423292 45.7772992,4.78108999 45.7772992,10.470468 L45.7772992,17.5206407 C45.7772992,23.2100187 41.1486326,27.8386853 35.4592546,27.8386853 Z M10.6074108,3.42714246 C6.72389156,3.42714246 3.56408526,6.58665105 3.56408526,10.470468 L3.56408526,17.5206407 C3.56408526,21.4041599 6.72359386,24.5639662 10.6074108,24.5639662 L35.4592546,24.5639662 C39.3430715,24.5639662 42.5025801,21.4044576 42.5025801,17.5206407 L42.5025801,10.470468 C42.5025801,6.58665105 39.3430715,3.42714246 35.4592546,3.42714246 C35.4592546,3.42714246 10.6074108,3.42714246 10.6074108,3.42714246 Z"/>
        </g>
      </g>
      <g fill-rule="nonzero" transform="rotate(-8 202.458 -144.559)">
        <path fill="#6592C9" d="M41.3322867,73.0495415 C37.2466518,73.0495415 33.9227702,69.7256599 33.9227702,65.640025 L33.9227702,61.1336899 L36.5484996,61.1336899 L36.5484996,65.640025 C36.5484996,68.2780078 38.694304,70.4238122 41.3322867,70.4238122 C43.9702695,70.4238122 46.1160739,68.277716 46.1160739,65.640025 L46.1160739,0 L48.7418033,0 L48.7418033,65.6397333 C48.7418033,69.7256599 45.4176299,73.0495415 41.3322867,73.0495415 Z"/>
        <rect width="7.197" height="2.626" x="31.806" y="59.176" fill="#4D4D4D"/>
        <g transform="translate(.716 25.674)">
          <path fill="#FFF" d="M43.1427758,10.2625174 L43.1427758,17.1711031 C43.1427758,21.8682412 39.3325507,25.6784662 34.6354126,25.6784662 L10.280314,25.6784662 C5.58317588,25.6784662 1.77295082,21.8682412 1.77295082,17.1711031 L1.77295082,10.2625174 C1.77295082,5.56246179 5.58317588,1.75515421 10.280314,1.75515421 L34.6354126,1.75515421 C39.3325507,1.75515421 43.1427758,5.56246179 43.1427758,10.2625174 Z" opacity=".46"/>
          <path fill="#FFF" d="M43.1427758,10.2625174 L43.1427758,17.1711031 C43.1427758,21.8682412 39.3325507,25.6784662 34.6354126,25.6784662 L24.7101556,25.6784662 L10.8988191,1.75515421 L34.6354126,1.75515421 C39.3325507,1.75515421 43.1427758,5.56246179 43.1427758,10.2625174 Z" opacity=".46"/>
          <path fill="#6592C9" d="M34.7500695,27.2819116 L10.3952626,27.2819116 C4.81967213,27.2819116 0.283578772,22.7458183 0.283578772,17.1702278 L0.283578772,10.2610586 C0.283578772,4.68546819 4.81967213,0.149374826 10.3952626,0.149374826 L34.7500695,0.149374826 C40.3256599,0.149374826 44.8617533,4.68546819 44.8617533,10.2610586 L44.8617533,17.1702278 C44.8617533,22.7458183 40.3256599,27.2819116 34.7500695,27.2819116 Z M10.3952626,3.35859961 C6.58941373,3.35859961 3.49280356,6.45491803 3.49280356,10.2610586 L3.49280356,17.1702278 C3.49280356,20.9760767 6.58912198,24.0726869 10.3952626,24.0726869 L34.7500695,24.0726869 C38.5562101,24.0726869 41.6525285,20.9763684 41.6525285,17.1702278 L41.6525285,10.2610586 C41.6525285,6.45491803 38.5562101,3.35859961 34.7500695,3.35859961 C34.7500695,3.35859961 10.3952626,3.35859961 10.3952626,3.35859961 Z"/>
        </g>
      </g>
    </g>
  </g>
</svg>
