<svg xmlns="http://www.w3.org/2000/svg" width="374" height="278" viewBox="0 0 374 278">
  <g fill="none" fill-rule="evenodd">
    <path fill="#E0EAF6" d="M208.625,256.980469 C311.626106,256.980469 373,266.501106 373,163.5 C373,60.4988942 376.880012,0.02734375 273.878906,0.02734375 C170.8778,0.02734375 8.52651283e-14,60.4988942 8.52651283e-14,163.5 C8.52651283e-14,266.501106 105.623894,256.980469 208.625,256.980469 Z"/>
    <g transform="translate(44 8)">
      <g transform="translate(132)">
        <path fill="#1A1A1A" d="M55.7914084 85.1538462C49.2043582 102.277153 33.536797 124.510808 10.0740741 140.070435L13.7698173 145.384615C33.7320768 135.670586 52.2924023 120.172108 60.9532074 108.314935 65.4096675 102.214547 61.9092041 88.126875 55.7914084 85.1538462zM98.2222222 92.657214C115.846105 97.9272683 144.25497 117.789052 161.651278 140.192308L166.666667 136.043448C155.387148 116.701744 133.477282 93.3850325 120.949022 85.6044464 114.504 81.5999713 100.709493 86.2541791 98.2222222 92.657214z"/>
        <g fill="#323232" transform="translate(65.037 156.808)">
          <path d="M27.3409797,105.731214 C25.6894815,70.5699168 24.0394552,35.4057006 22.387957,0.244403326 C30.0257682,0.244403326 37.6665233,0.244403326 45.3028626,0.244403326 C43.7102413,35.4057006 42.1161481,70.5699168 40.5235269,105.731214 C36.1283632,105.731214 31.7346714,105.731214 27.3409797,105.731214 Z"/>
          <path d="M5.85678375,105.731214 C4.20528554,70.5699168 2.55673118,35.4057006 0.903761051,0.244403326 C8.54157228,0.244403326 16.1823274,0.244403326 23.8201386,0.244403326 C22.2275173,35.4057006 20.6319522,70.5699168 19.0393309,105.731214 C14.6471111,105.731214 10.2504755,105.731214 5.85678375,105.731214 Z"/>
        </g>
        <rect width="47.704" height="5.192" x="64" y="158.885" fill="#1A1A1A"/>
        <path fill="#323232" d="M111.666384,159.923077 L120,83.899013 L101.296772,75.8076923 L74.4069315,75.8076923 C68.1725222,78.5047992 59.5007985,80.7201239 55.7037037,83.899013 L63.7462534,159.923077 L111.666384,159.923077 Z"/>
        <polygon fill="#F5F0F0" points="74.37 75.808 87.843 140.192 101.333 75.808"/>
        <g fill="#1A1A1A" transform="translate(60.889 75.808)">
          <polygon points="12.882 .866 .377 14.86 14.838 27.225 4.507 33.923 26.203 64.839"/>
          <polygon points="39.541 .866 52.029 14.86 37.567 27.225 47.897 33.923 26.203 64.839"/>
        </g>
        <g transform="translate(54.667)">
          <path fill="#AA7764" d="M33.3030918,1.3233612 C-10.4499517,1.3233612 0.0926570048,59.3954849 33.3030918,59.3954849 C66.5128502,59.3954849 77.0541063,1.3233612 33.3030918,1.3233612"/>
          <path fill="#FCDABE" d="M33.3030918,44.5581271 L33.3030918,44.5581271 C37.5666667,44.5581271 41.0558454,48.0520987 41.0558454,52.3228846 L41.0558454,70.112408 C41.0558454,74.3825167 37.5666667,77.8764883 33.3030918,77.8764883 C29.0388406,77.8764883 25.5489855,74.3825167 25.5489855,70.112408 L25.5489855,52.3228846 C25.5489855,48.0520987 29.0388406,44.5581271 33.3030918,44.5581271"/>
          <path fill="#E0BA9B" d="M41.0558454,64.3232107 L41.0558454,64.3232107 C41.0558454,70.9914883 25.5489855,70.9914883 25.5489855,64.3232107 C25.5489855,57.6542559 41.0558454,57.6542559 41.0558454,64.3232107"/>
          <path fill="#FCDABE" d="M33.3030918,3.17159699 C-10.3877295,3.17159699 0.139323671,66.6712625 33.3030918,66.6712625 C66.4655072,66.6712625 76.9918841,3.17159699 33.3030918,3.17159699"/>
          <path fill="#FCDABE" d="M2.94879227 31.1314967C5.1563285 30.5673411 7.83594203 33.6068729 8.9363285 37.9210033 10.0353623 42.2344565 9.13990338 46.1889632 6.93236715 46.753796 4.7268599 47.3172742 2.04657005 44.2777425.946183575 39.9642893-.154202899 35.6508361.742608696 31.6956522 2.94879227 31.1314967M63.6797101 31.1314967C61.4721739 30.5673411 58.7918841 33.6068729 57.6928502 37.9210033 56.5924638 42.2344565 57.4892754 46.1889632 59.6954589 46.753796 61.9029952 47.3172742 64.583285 44.2777425 65.6823188 39.9642893 66.7827053 35.6508361 65.8858937 31.6956522 63.6797101 31.1314967"/>
          <path fill="#425156" d="M42.3658937 41.0458696C43.5257971 41.0458696 44.4699517 39.3120903 44.4699517 37.1848244 44.4699517 35.0582358 43.5257971 33.3237793 42.3658937 33.3237793 41.207343 33.3237793 40.2631884 35.0582358 40.2631884 37.1848244 40.2631884 39.3120903 41.207343 41.0458696 42.3658937 41.0458696M24.2382609 41.0458696C25.3968116 41.0458696 26.3429952 39.3120903 26.3429952 37.1848244 26.3429952 35.0582358 25.3968116 33.3237793 24.2382609 33.3237793 23.0797101 33.3237793 22.1342029 35.0582358 22.1342029 37.1848244 22.1342029 39.3120903 23.0797101 41.0458696 24.2382609 41.0458696"/>
          <path fill="#E0BA9B" d="M37.5592271,45.4135033 C35.9252174,49.5840552 30.6796135,49.5102341 29.0469565,45.4135033 C31.4377778,47.6917977 35.0371981,47.7974498 37.5592271,45.4135033"/>
          <path fill="#AA7764" d="M9.15748792,39.4312876 C9.63700483,44.076597 8.50888889,42.7613629 6.84309179,39.1183946 C5.17729469,35.4754264 3.96193237,31.8412625 4.25410628,28.2436706 C7.06357488,-6.49286789 58.6403865,-6.91818562 62.3297585,28.2436706 C62.7057971,31.8338127 61.4058937,35.4754264 59.7407729,39.1183946 C58.0749758,42.7613629 56.9468599,44.0759197 57.4263768,39.4312876 C58.007343,33.7904097 57.1409662,25.6734783 54.1610628,20.8961037 C48.8877295,12.4425753 42.0067633,17.3486288 32.6781643,17.3486288 C23.3509179,17.3486288 18.9771014,13.5363462 12.886087,21.3390301 C9.19400966,26.0683194 8.53661836,33.4084365 9.15748792,39.4312876"/>
          <path fill="#AA7764" d="M4.30821256,27.6314298 C0.836618357,-8.92219064 65.6863768,-8.04446488 62.2966184,27.6314298 C54.7839614,5.827801 11.8201932,5.827801 4.30821256,27.6314298"/>
          <path fill="#BF9470" d="M44.2481159,51.5914465 C40.4742029,58.2407609 26.9449275,58.4236204 22.3560386,51.5914465 C28.8197101,54.1480936 38.1219324,53.9720067 44.2481159,51.5914465"/>
          <path fill="#AA7764" d="M46.6314976,31.1389465 C57.5995169,14.0808612 50.2140097,9.40168896 37.9170048,4.35679766 C53.6998068,2.2498495 72.4773913,17.7604013 46.6314976,31.1389465"/>
          <path fill="#AA7764" d="M33.2381643,30.0654933 C50.0618357,16.9815552 44.9366184,11.3339047 35.6830918,4.38795151 C52.7407729,5.62868729 65.3874396,23.2177425 33.2381643,30.0654933"/>
          <path fill="#AA7764" d="M21.2319807,26.2416973 C35.8643478,17.5524833 38.3884058,11.3420318 30.4564251,1.61051839 C48.4210628,7.06379599 54.8001932,25.6192977 21.2319807,26.2416973"/>
          <path fill="#AA7764" d="M8.60222222,24.8438378 C16.3536232,16.1546237 20.5001932,12.3890719 21.006087,3.44317726 C39.9033816,8.23341973 52.9085024,17.2077592 8.60222222,24.8438378"/>
        </g>
        <polygon fill="#1A1A1A" points="85.778 160.962 88.889 160.962 88.889 138.115 87.184 139.989 85.778 138.445"/>
        <polygon fill="#F5F0F0" points="74.37 76.454 79.692 70.615 87.852 76.454 76.799 88.269"/>
        <polygon fill="#F5F0F0" points="101.333 75.75 95.714 69.577 87.852 75.75 98.905 87.231"/>
        <polygon fill="#323232" points="76.444 87.231 87.468 81.52 98.222 87.231 87.468 75.808"/>
        <polygon fill="#323232" points="87.333 75.808 81.63 81.768 87.333 97.615 93.037 81.768"/>
        <polygon fill="#323232" points="85.5 92.423 89.22 92.423 94.074 108.839 87.328 141.231 80.593 108.839"/>
        <path fill="#1A1A1A" d="M70.7407407 270C77.8798484 270 83.7037037 266.968925 83.7037037 263.25 83.7037037 259.531075 77.8813065 256.5 70.7407407 256.5 63.6016331 256.5 57.7777778 259.531075 57.7777778 263.25 57.7792359 266.968925 63.6030913 270 70.7407407 270zM104.962963 270C112.102071 270 117.925926 266.968925 117.925926 263.25 117.925926 259.531075 112.103529 256.5 104.962963 256.5 97.8223972 256.5 92 259.531075 92 263.25 92.0014582 266.968925 97.8238554 270 104.962963 270z"/>
        <path fill="#FCDABE" d="M172.990175 135.724253C174.819946 137.330571 174.58486 138.683574 173.062048 139.492693 176.055266 141.510276 176.631748 145.277226 175.376963 146.692812 172.933275 149.447991 167.905149 149.002453 164.143787 145.700412 160.380927 142.39688 159.313311 137.48554 161.755501 134.731852 164.197691 131.975184 169.228813 132.419231 172.990175 135.724253zM3.74992269 140.916797C1.92006845 142.523101 2.15516429 143.876093 3.67804626 144.685205.686189654 146.702771.108183323 150.469689 1.36452351 151.885263 3.80682487 154.640418 8.83667789 154.194884 12.5982113 150.891381 16.3597448 147.587877 17.4274093 142.67658 14.9851079 139.922915 12.5398117 137.16776 7.5099587 137.611804 3.74992269 140.916797z"/>
      </g>
      <g transform="translate(0 13)">
        <path fill="#4D4D4D" fill-rule="nonzero" d="M110.962963,38.6534212 L110.962963,99.1538462 L35.2592593,99.1538462 L35.2592593,38.6534212 C35.2592593,17.8543561 51.7680741,0.941489588 72.3,0.510900977 C72.5703704,0.505450489 72.8407407,0.5 73.1111111,0.5 C73.3814815,0.5 73.6518519,0.505450489 73.9222222,0.510900977 C84.0502963,0.723470038 93.205037,4.9530493 99.8777778,11.6735019 C106.723556,18.5792711 110.962963,28.1176264 110.962963,38.6534212 Z"/>
        <rect width="16.593" height="23.885" x="64.296" y="60.731" fill="#C79369"/>
        <path fill="#E7B791" d="M93.5199383 80.1248187C106.514413 93.9437816 114.705693 116.731818 136.888889 131.496744L133.395656 136.538462C114.523146 127.32045 96.9737406 112.614098 88.7868417 101.363585 84.5751013 95.5779834 89.1081256 75.4345423 93.5199383 80.1248187zM72.5925926 87.4902829C56.0366413 92.4665791 29.3507369 111.22577 13.0083077 132.384615L8.2962963 128.465819C18.8939644 110.197768 39.4734273 88.1761092 51.2432881 80.8281817 57.2974384 77.0480255 70.2554698 81.4446878 72.5925926 87.4902829z"/>
        <g fill="#E7B791" transform="translate(51.852 150.038)">
          <path d="M17.1320307,99.8679883 C18.6846897,66.6852291 20.2344163,33.5024699 21.7870754,0.319710702 C14.6087765,0.319710702 7.43047765,0.319710702 0.252178799,0.319710702 C1.74912388,33.5024699 3.24606897,66.6852291 4.74301405,99.8679883 C8.87170881,99.8679883 13.0018697,99.8679883 17.1320307,99.8679883 Z"/>
          <path d="M37.3209962,99.8679883 C38.8736552,66.6852291 40.4233819,33.5024699 41.9760409,0.319710702 C34.797742,0.319710702 27.6194432,0.319710702 20.4411443,0.319710702 C21.9380894,33.5024699 23.4350345,66.6852291 24.9334457,99.8679883 C29.0606743,99.8679883 33.1908352,99.8679883 37.3209962,99.8679883 Z"/>
        </g>
        <path fill="#E7B791" d="M62.588459,128.230769 L52.8888889,79.426383 L64.653435,74.2307692 L81.5702415,74.2307692 C85.4907873,76.2614079 90.8146444,77.635248 93.3333333,80.3212157 L83.764642,128.230769 L62.588459,128.230769 L62.588459,128.230769 Z"/>
        <path fill="#D84154" fill-rule="nonzero" d="M51.1281982,78.3846154 L63.2592593,90.247622 L51.528013,95 C51.528013,95 52.0722518,87.3774534 46.6666667,80.5281387 L51.1281982,78.3846154 Z"/>
        <path fill="#ED4551" fill-rule="nonzero" d="M98.8161605,96.4416661 L98.8161605,99.1197286 C98.8161605,103.91406 96.1763673,108.086602 92.2818577,110.262868 C90.9348027,111.015562 89.8593315,112.122785 89.1260556,113.431818 C88.3927797,114.74085 87.9908359,116.246238 87.9908359,117.79526 C87.9908359,118.842486 88.0994694,119.873349 88.3167363,120.87694 C88.4416648,121.460551 88.5991833,122.033252 88.7947235,122.589591 C89.1912357,123.756812 89.734403,124.86949 90.4133621,125.900353 C90.5057006,126.03671 90.5926073,126.173068 90.6903774,126.303971 C90.8533276,126.54396 91.0271412,126.773041 91.2063864,127.002122 C91.3095882,127.127571 91.4073583,127.247565 91.5105601,127.36756 C91.7061003,127.602095 91.9125039,127.825721 92.1243392,128.043894 C92.3361744,128.26752 92.558873,128.485692 92.7924349,128.69841 C94.9325142,130.65105 96.7195346,132.985491 98.0448629,135.598102 C98.7564121,136.999858 99.3376011,138.47252 99.7612716,140.016087 C100.337029,142.077813 100.641203,144.248626 100.641203,146.495798 L100.641203,222.921482 C91.9559573,226.259515 82.803588,227.923077 73.6512188,227.923077 C64.5042812,227.923077 55.3573437,226.259515 46.6666667,222.921482 L46.6666667,146.495798 C46.6666667,139.437931 49.6975403,133.094577 54.5154343,128.69841 C56.8076004,126.609412 58.3610589,123.865898 58.9965647,120.87694 C59.2138316,119.873349 59.3224651,118.837031 59.3224651,117.79526 C59.3224651,114.697216 57.7255532,111.768256 55.0314433,110.262868 C54.2873041,109.848341 53.5866182,109.357454 52.9402491,108.801115 C50.8599183,107.012104 49.3607765,104.563122 48.7741558,101.775974 C48.589479,100.919648 48.4971405,100.030597 48.4971405,99.1197286 L48.4971405,96.4416661 L93.5800276,77.3461538 C98.5880302,79.3642457 103.275564,82.1077597 107.495974,85.4457927 C100.641203,89.109976 103.22772,89.3371394 98.8161605,96.4416661 Z"/>
        <path fill="#FBB03B" fill-rule="nonzero" d="M100.592593 222.730769L100.592593 228.147887C95.5185521 230.087216 90.2871349 231.457746 84.9905963 232.254063 83.2811602 232.519502 81.5608705 232.719935 79.8405808 232.855363 77.7729772 233.028711 75.6999467 233.115385 73.6269162 233.115385 71.5538858 233.115385 69.4862821 233.028711 67.4186784 232.855363 65.6983887 232.719935 63.9835258 232.519502 62.2740897 232.254063 56.9775512 231.457746 51.746134 230.087216 46.6666667 228.147887L46.6666667 222.730769C51.0080917 224.388407 55.468906 225.628927 59.9785612 226.457746 62.7190858 226.961538 65.4813175 227.313651 68.248976 227.508667 70.0398138 227.633261 71.8360784 227.698267 73.6269162 227.698267 75.4231809 227.698267 77.2194455 227.633261 79.0102833 227.50325 81.7833686 227.308234 84.5456002 226.961538 87.2861248 226.457746 91.7957801 225.628927 96.2565943 224.388407 100.592593 222.730769zM98.5185185 134.921738C91.7759688 148.704926 77.2328921 170.186977 46.6666667 191.576923L46.6666667 174.68385C64.9099231 160.521408 75.517105 146.998281 81.4099838 137.565683 85.5267764 130.972075 87.8894097 125.548737 89.1831021 122 89.5832697 123.159435 90.1314445 124.26469 90.8166629 125.288677 90.9427431 125.478304 91.0743051 125.667932 91.2168305 125.852141 91.7978958 126.648575 92.466669 127.39083 93.2176685 128.06807 94.3469085 129.081221 95.3774771 130.20273 96.2984107 131.410926 97.1371181 132.510764 97.8826358 133.686453 98.5185185 134.921738z"/>
        <path fill="#D84154" fill-rule="nonzero" d="M95.4074074,131.76942 C88.6028684,145.841194 74.63849,166.973485 46.6666667,188.461538 L46.6666667,180.289948 C65.9605495,164.877223 77.1794255,150.165076 83.4133307,139.902697 C86.7025501,134.484161 88.9366353,129.788097 90.4170532,126.153846 C90.987687,126.958417 91.6444543,127.708255 92.3819715,128.392413 C93.4909391,129.415914 94.5030067,130.548881 95.4074074,131.76942 Z"/>
        <path fill="#4D4D4D" fill-rule="nonzero" d="M99.5555556,139.924409 C92.0239614,154.650589 76.7930435,176.270107 46.6666667,197.807692 L46.6666667,192.618571 C76.8363285,171.053675 91.1907246,149.395921 97.8457971,135.5 C98.5545894,136.903794 99.1335266,138.378597 99.5555556,139.924409 Z" opacity=".29"/>
        <path fill="#FBB03B" fill-rule="nonzero" d="M107.851852,85.4386355 L53.1923048,108.5 L53.1868628,108.5 C52.3977714,107.826793 51.6903101,107.062031 51.091689,106.221869 C49.8781208,104.541545 49.0727033,102.548854 48.8278129,100.394593 C48.7679508,99.9152697 48.7407407,99.430561 48.7407407,98.9404666 L48.7407407,96.2961112 L93.6672531,77.3461538 C95.0821757,77.9062617 96.7120577,78.6203993 98.0671181,79.2936058 C100.385414,80.4353642 102.616638,81.7386921 104.744464,83.182047 C105.805656,83.8983388 106.839638,84.6523302 107.851852,85.4386355 Z"/>
        <path fill="#D84154" fill-rule="nonzero" d="M104.740741,83.3218769 L51.0079913,106.423077 C49.7926142,104.738277 48.9859962,102.740277 48.7407407,100.580277 L98.0534415,79.4230769 C100.503816,80.5759769 102.609743,81.8746769 104.740741,83.3218769 Z"/>
        <path fill="#ED4551" d="M89.1851852 257C96.0402386 257 101.62963 254.200037 101.62963 250.768491 101.62963 247.336946 96.0387549 244.538462 89.1851852 244.538462 82.3316155 244.538462 76.7407407 247.338425 76.7407407 250.768491 76.7407407 254.201516 82.3316155 257 89.1851852 257zM57.037037 257C63.8906067 257 69.4814815 254.200037 69.4814815 250.768491 69.4814815 247.336946 63.8906067 244.538462 57.037037 244.538462 50.1819836 244.538462 44.5925926 247.338425 44.5925926 250.768491 44.5925926 254.201516 50.1834674 257 57.037037 257z"/>
        <path fill="#E7B791" d="M2.80841327 127.728999C1.1019333 129.22829 1.31968725 130.491705 2.7417539 131.24651-.0520145288 133.130575-.589733478 136.646613.581990183 137.967522 2.86174077 140.538579 7.55604201 140.122846 11.066769 137.040232 14.5774961 133.957618 15.574424 129.372765 13.2946734 126.801708 11.0134415 124.230652 6.31914029 124.646385 2.80841327 127.728999zM141.339661 131.883653C143.047667 133.382782 142.828426 134.64606 141.406322 135.400784 144.200164 137.283172 144.737897 140.800303 143.566143 142.12107 141.284851 144.691849 136.590426 144.277635 133.081088 141.19388 129.570268 138.110125 128.573314 133.527241 130.854606 130.956462 133.134417 128.38421 137.828841 128.799898 141.339661 131.883653z"/>
        <g fill="#ED4551" fill-rule="nonzero" transform="translate(36.296 45.154)">
          <path d="M4.37323305 20.5886982L4.37323305 20.5886982C-1.41687977 14.9043195-1.41687977 5.68757396 4.37323305.00319526627L4.37323305.00319526627 4.37323305.00319526627C10.1638883 5.68757396 10.1638883 14.9043195 4.37323305 20.5886982L4.37323305 20.5886982zM65.8512775 20.5886982L65.8512775 20.5886982C60.0611647 14.9043195 60.0611647 5.68757396 65.8512775.00319526627L65.8512775.00319526627 65.8512775.00319526627C71.6413903 5.68757396 71.6413903 14.9043195 65.8512775 20.5886982L65.8512775 20.5886982z"/>
        </g>
        <g transform="translate(32.148 14)">
          <path fill="#E7B791" fill-rule="nonzero" d="M72.6340829,29.2352999 C72.6340829,45.901237 60.7251073,55.6243993 45.1946579,57.2740594 C43.6198735,57.4488578 42.0026707,57.5307946 40.3589563,57.5307946 C38.715242,57.5307946 37.0980391,57.4433954 35.5179524,57.2740594 C34.7279091,57.1921226 33.943168,57.0883361 33.1743339,56.9626997 C18.8050891,54.6193084 8.07852738,45.0545572 8.07852738,29.2352999 C8.07852738,25.3842722 8.7148039,21.3966831 9.88661317,17.4964933 C16.3501222,7.2161611 27.5804028,0.415409968 40.353654,0.415409968 C53.1375098,0.415409968 64.3730927,7.22162355 70.8312995,17.5128807 C72.0031087,21.407608 72.6340829,25.3897346 72.6340829,29.2352999 Z"/>
          <g transform="translate(25.926 23.885)">
            <g fill="#323232" transform="translate(.833 .04)">
              <path d="M24.8791481 8.02946299C26.0144074 8.02946299 26.9419259 6.40123367 26.9419259 4.40415457 26.9419259 2.40707547 26.0158704.778846154 24.8791481.778846154 23.7438889.778846154 22.8163704 2.40707547 22.8163704 4.40415457 22.8178333 6.40123367 23.7438889 8.02946299 24.8791481 8.02946299zM2.31440741 8.02946299C3.44966667 8.02946299 4.37718519 6.40123367 4.37718519 4.40415457 4.37718519 2.40707547 3.45112963.778846154 2.31440741.778846154 1.17914815.778846154.25162963 2.40707547.25162963 4.40415457.25162963 6.40123367 1.17914815 8.02946299 2.31440741 8.02946299z"/>
            </g>
            <path fill="#C79369" d="M27.4124444,16.1098694 C21.7537037,17.2105406 7.90237037,17.1135522 1.44777778,16.1098694 C8.11157407,24.1510885 22.0945741,24.4317671 27.4124444,16.1098694 Z"/>
          </g>
        </g>
        <g fill="#ED4551" fill-rule="nonzero" transform="translate(69.481 .5)">
          <path d="M4.14814815,0.0109724238 L4.14814815,21.8076923 L2.07407407,21.8076923 L2.07407407,0.0109724238 C2.41975309,0.0054862119 2.7654321,0 3.11111111,0 C3.45679012,0 3.80246914,0.0054862119 4.14814815,0.0109724238 Z"/>
          <ellipse cx="3.111" cy="23.885" rx="3.111" ry="3.115"/>
          <ellipse cx="3.111" cy="29.077" rx="2.074" ry="2.077"/>
        </g>
      </g>
    </g>
  </g>
</svg>
