<svg xmlns="http://www.w3.org/2000/svg" width="131" height="30" viewBox="0 0 131 30">
  <g fill="#3A3F49" fill-rule="evenodd">
    <path d="M21.3026472,19.0576961 L21.3030134,19.0583147 C21.3030134,19.0580154 21.3028913,19.0578092 21.3026473,19.0576961 L21.3026472,19.0576961 Z M21.3026473,19.0576961 C21.2972036,19.0551743 21.2310595,19.0989767 21.1042132,19.1891044 C20.971679,19.2832734 20.7868315,19.4018548 20.5496652,19.5448521 C20.3124988,19.6878495 20.0317399,19.8447955 19.70738,20.0156948 C19.3830201,20.186594 19.0255321,20.3452839 18.6349051,20.491769 C18.2442782,20.6382541 17.8309871,20.7603232 17.3950195,20.8579799 C16.9590519,20.9556366 16.5143717,21.0044643 16.0609654,21.0044643 C15.5517553,21.0044643 15.1175381,20.8789075 14.7583008,20.6277902 C14.3990635,20.3766729 14.0938908,20.0453425 13.8427734,19.6337891 C13.5916561,19.2222357 13.3823948,18.7531416 13.2149833,18.2264927 C13.0475717,17.6998439 12.9010888,17.1609961 12.7755301,16.609933 C12.6499715,16.05887 12.5331339,15.5200222 12.425014,14.9933733 C12.316894,14.4667245 12.1965687,13.9976304 12.0640346,13.586077 C11.9315005,13.1745236 11.7745545,12.8431932 11.593192,12.5920759 C11.4118295,12.3409586 11.1851297,12.2154018 10.9130859,12.2154018 L10.2539062,12.2154018 C10.1143966,13.7430322 9.94001221,15.1119499 9.73074777,16.3221959 C9.52148333,17.5324419 9.24421211,18.5595661 8.89892578,19.4035993 C8.55363946,20.2476326 8.1211661,20.8928549 7.60149275,21.3392857 C7.08181939,21.7857165 6.44531627,22.0089286 5.69196429,22.0089286 C5.13392578,22.0089286 4.62297944,21.9025541 4.15910993,21.6898019 C3.69524043,21.4770497 3.27671783,21.1858277 2.90352958,20.8161272 C2.53034133,20.4464267 2.20424247,20.0139534 1.92522321,19.5186942 C1.64620396,19.023435 1.41427269,18.4915626 1.22942243,17.9230608 C1.04457218,17.3545591 0.905064645,16.7668836 0.810895647,16.1600167 C0.71672665,15.5531499 0.669642857,14.9497798 0.669642857,14.3498884 C0.669642857,13.2686888 0.803918858,12.2101754 1.07247489,11.1743164 C1.34103092,10.1384574 1.72816432,9.16016085 2.23388672,8.23939732 C2.73960911,7.31863379 3.35169842,6.47286937 4.07017299,5.70207868 C4.78864757,4.931288 5.59604742,4.26513953 6.49239676,3.70361328 C7.38874611,3.14208704 8.36529885,2.70438215 9.42208426,2.39048549 C10.4788697,2.07658883 11.5966738,1.91964286 12.7755301,1.91964286 C13.2986912,1.91964286 13.8183568,1.96847049 14.3345424,2.06612723 C14.850728,2.16378397 15.3424921,2.30677919 15.8098493,2.49511719 C16.2772066,2.68345518 16.7114238,2.9171303 17.112514,3.19614955 C17.5136041,3.47516881 17.8588853,3.79429229 18.1483677,4.15352958 C18.4378502,4.51276686 18.6662938,4.91210718 18.8337054,5.3515625 C19.0011169,5.79101782 19.0848214,6.26883112 19.0848214,6.78501674 C19.0848214,7.11983984 19.0290184,7.47209637 18.9174107,7.84179687 C18.805803,8.21149738 18.6349063,8.57596082 18.4047154,8.9351981 C18.1745245,9.29443539 17.8798149,9.64146038 17.5205776,9.97628348 C17.1613403,10.3111066 16.7306108,10.6110478 16.2283761,10.8761161 C15.7261415,11.1411844 15.1541606,11.3626526 14.5124163,11.5405273 C13.870672,11.7184021 13.1487205,11.831752 12.3465402,11.8805804 C12.8348239,12.0619429 13.2428834,12.295618 13.570731,12.5816127 C13.8985786,12.8676075 14.1723622,13.1867309 14.3920898,13.5389927 C14.6118175,13.8912546 14.7862019,14.2626934 14.9152483,14.6533203 C15.0442947,15.0439473 15.1541569,15.427593 15.2448382,15.804269 C15.3355194,16.180945 15.4174801,16.5419207 15.4907227,16.887207 C15.5639652,17.2324934 15.6511574,17.5359222 15.7523019,17.7975028 C15.8534464,18.0590833 15.980747,18.2683446 16.1342076,18.425293 C16.2876682,18.5822413 16.4934418,18.6607143 16.7515346,18.6607143 C16.988701,18.6607143 17.2485337,18.6206059 17.5310407,18.5403878 C17.8135477,18.4601698 18.1030259,18.3468199 18.3994838,18.2003348 C18.6959418,18.0538497 18.9889076,17.8794653 19.2783901,17.6771763 C19.5678725,17.4748874 19.8381684,17.2516753 20.0892857,17.0075335 L21.3026472,19.0576961 L21.3026473,19.0576961 Z M12.5871931,4.26339286 C11.4362387,4.26339286 10.4091144,4.42382652 9.50578962,4.74469866 C8.60246479,5.0655708 7.80901569,5.49804415 7.12541853,6.0421317 C6.44182136,6.58621924 5.85937741,7.21749083 5.3780692,7.9359654 C4.89676099,8.65443998 4.50613989,9.40778066 4.2061942,10.19601 C3.9062485,10.9842394 3.68826798,11.7829201 3.55224609,12.5920759 C3.41622421,13.4012317 3.34821429,14.1720108 3.34821429,14.9044364 C3.34821429,15.4694504 3.39704192,16.0361997 3.49469866,16.6047015 C3.5923554,17.1732032 3.74581369,17.6841495 3.95507812,18.1375558 C4.16434256,18.5909621 4.43463841,18.9589132 4.76597377,19.2414202 C5.09730913,19.5239272 5.49664945,19.6651786 5.9640067,19.6651786 C6.20117306,19.6651786 6.41043436,19.5727548 6.59179687,19.3879046 C6.77315939,19.2030543 6.93359305,18.9554284 7.07310268,18.6450195 C7.2126123,18.3346106 7.3346814,17.9753787 7.43931362,17.5673131 C7.54394584,17.1592474 7.63113804,16.7354933 7.70089286,16.2960379 C7.77064767,15.8565826 7.82645068,15.4136462 7.86830357,14.9672154 C7.91015646,14.5207846 7.9432895,14.102262 7.96770368,13.711635 C7.99211787,13.3210081 8.00781247,12.9739831 8.01478795,12.6705497 C8.02176343,12.3671162 8.02525112,12.135185 8.02525112,11.9747489 C7.48116357,11.7166561 7.06787251,11.4760056 6.78536551,11.2527902 C6.50285852,11.0295748 6.36160714,10.7714858 6.36160714,10.4785156 C6.36160714,10.4087608 6.36683868,10.3250563 6.3773019,10.2273996 C6.38776512,10.1297428 6.41043509,10.0390629 6.4453125,9.95535714 C6.48018991,9.87165137 6.53076139,9.80015376 6.59702846,9.74086217 C6.66329553,9.68157057 6.75223158,9.65192522 6.86383929,9.65192522 C6.91266765,9.65192522 7.01032293,9.66064444 7.15680804,9.67808315 C7.30329314,9.69552185 7.45675143,9.71644798 7.6171875,9.74086217 C7.77762357,9.76527635 7.92585032,9.78620248 8.06187221,9.80364118 C8.1978941,9.82107989 8.28683015,9.82979911 8.32868304,9.82979911 L8.33914621,9.61007254 C8.34612169,9.49846484 8.3583286,9.34500656 8.3757673,9.14969308 C8.393206,8.9543796 8.42285135,8.7451183 8.46470424,8.5219029 C8.50655713,8.2986875 8.56759167,8.0737316 8.64780971,7.84702846 C8.72802774,7.62032532 8.83440224,7.41455171 8.96693638,7.22970145 C9.09947053,7.0448512 9.25816035,6.8948806 9.4430106,6.77978516 C9.62786086,6.66468971 9.85281676,6.60714286 10.117885,6.60714286 C10.4666591,6.60714286 10.6985904,6.68561584 10.8136858,6.84256417 C10.9287813,6.9995125 10.9863281,7.20005458 10.9863281,7.44419643 L10.9863281,7.53836496 C10.9793526,7.80343324 10.9392442,8.15394592 10.8660017,8.5899135 C10.7927591,9.02588109 10.7247492,9.52985205 10.6619699,10.1018415 C11.7989733,10.0809151 12.7371615,9.9675652 13.4765625,9.7617885 C14.2159635,9.55601181 14.8018952,9.29617902 15.234375,8.98228237 C15.6668548,8.66838571 15.9702837,8.32484841 16.1446708,7.95166016 C16.3190578,7.57847191 16.40625,7.21749616 16.40625,6.8687221 C16.40625,6.52692351 16.3242893,6.19908081 16.1603655,5.88518415 C15.9964417,5.57128749 15.7540474,5.29401627 15.4331752,5.05336217 C15.1123031,4.81270806 14.7147066,4.6208852 14.2403739,4.47788783 C13.7660412,4.33489047 13.2149864,4.26339286 12.5871931,4.26339286 Z"/>
    <path d="M22.5055804,20.0341797 C21.8498851,20.0341797 21.2761604,19.9155983 20.784389,19.6784319 C20.2926175,19.4412656 19.8828141,19.1221421 19.5549665,18.7210519 C19.2271189,18.3199617 18.9812369,17.8560992 18.8173131,17.3294503 C18.6533892,16.8028015 18.5714286,16.2500029 18.5714286,15.6710379 C18.5714286,15.280411 18.6097931,14.8671199 18.6865234,14.4311523 C18.7632537,13.9951848 18.8800913,13.5679429 19.0370396,13.1494141 C19.1939879,12.7308852 19.3910423,12.3315449 19.6282087,11.9513811 C19.8653751,11.5712174 20.1426463,11.2363993 20.4600307,10.9469169 C20.7774151,10.6574344 21.1331593,10.4272469 21.527274,10.2563477 C21.9213887,10.0854484 22.3590936,10 22.8404018,10 C23.2310287,10 23.5937483,10.0627784 23.9285714,10.1883371 C24.2633945,10.3138957 24.5546165,10.490024 24.8022461,10.7167271 C25.0498757,10.9434303 25.2434424,11.2172138 25.382952,11.5380859 C25.5224616,11.8589581 25.5922154,12.21819 25.5922154,12.6157924 C25.5922154,13.0482723 25.4858409,13.4807456 25.2730887,13.9132254 C25.0603365,14.3457053 24.7656269,14.7537648 24.3889509,15.1374163 C24.0122749,15.5210678 23.564107,15.8628612 23.0444336,16.1628069 C22.5247602,16.4627526 21.9614986,16.6964277 21.3546317,16.8638393 C21.4592639,17.0521773 21.5621507,17.2091233 21.6632952,17.3346819 C21.7644397,17.4602406 21.8673265,17.5578959 21.9719587,17.6276507 C22.0765909,17.6974055 22.1864531,17.7462331 22.3015485,17.774135 C22.416644,17.802037 22.5404569,17.8159877 22.6729911,17.8159877 C23.0915199,17.8159877 23.5327125,17.7322832 23.996582,17.5648717 C24.4604515,17.3974601 24.9121072,17.1881988 25.3515625,16.9370815 C25.7910178,16.6859641 26.2060527,16.4121806 26.5966797,16.1157227 C26.9873066,15.8192647 27.318637,15.5385058 27.5906808,15.2734375 L28.9404297,16.6755022 C28.3265873,17.310271 27.6743896,17.8717889 26.983817,18.3600725 C26.6838713,18.569337 26.3612601,18.7751106 26.0159738,18.9773996 C25.6706874,19.1796885 25.3079679,19.3593045 24.9278041,19.5162528 C24.5476404,19.6732011 24.1535316,19.7987579 23.745466,19.8929269 C23.3374003,19.9870959 22.9241092,20.0341797 22.5055804,20.0341797 Z M21.1139788,15.11649 C21.3650961,15.11649 21.6388797,15.0519677 21.9353376,14.9229213 C22.2317956,14.7938749 22.5073229,14.6282097 22.761928,14.4259208 C23.0165331,14.2236318 23.2310259,14.0039074 23.4054129,13.7667411 C23.5798,13.5295747 23.6669922,13.2993873 23.6669922,13.0761719 C23.6669922,12.7622752 23.6094453,12.5041863 23.4943499,12.3018973 C23.3792544,12.0996084 23.2380031,11.9984654 23.0705915,11.9984654 C22.7706458,11.9984654 22.5143007,12.0542684 22.3015485,12.1658761 C22.0887964,12.2774838 21.9109243,12.4222229 21.7679269,12.6000977 C21.6249295,12.7779724 21.5098358,12.9802584 21.4226423,13.2069615 C21.3354488,13.4336646 21.2691827,13.6621082 21.2238421,13.8922991 C21.1785014,14.12249 21.1488561,14.345702 21.1349051,14.561942 C21.1209542,14.7781819 21.1139788,14.9630294 21.1139788,15.11649 Z"/>
    <path d="M38.0426897,17.46024 C37.8822537,17.6834554 37.6677608,17.945032 37.3992048,18.2449777 C37.1306488,18.5449234 36.8289637,18.8309138 36.4941406,19.1029576 C36.1593175,19.3750014 35.8000856,19.6051888 35.4164342,19.7935268 C35.0327827,19.9818648 34.649137,20.0760324 34.2654855,20.0760324 C33.8051037,20.0760324 33.421458,19.9278056 33.1145368,19.6313477 C32.8076157,19.3348897 32.5425513,18.9041602 32.3193359,18.3391462 C32.1519244,18.5344597 31.9461508,18.7332579 31.7020089,18.9355469 C31.4578671,19.1378358 31.1910589,19.3209395 30.9015765,19.4848633 C30.612094,19.6487871 30.3104089,19.7830631 29.9965123,19.8876953 C29.6826156,19.9923275 29.3687237,20.0446429 29.054827,20.0446429 C28.7200039,20.0446429 28.393905,19.9766329 28.0765206,19.840611 C27.7591362,19.7045892 27.4783773,19.5092786 27.2342355,19.2546735 C26.9900936,19.0000685 26.7947831,18.6896642 26.648298,18.3234515 C26.5018129,17.9572387 26.4285714,17.5439476 26.4285714,17.0835658 C26.4285714,16.5604048 26.5018129,16.0233007 26.648298,15.4722377 C26.7947831,14.9211747 26.997069,14.3823269 27.2551618,13.855678 C27.5132546,13.3290292 27.8184274,12.8320336 28.1706892,12.3646763 C28.522951,11.8973191 28.9083405,11.4892596 29.3268694,11.1404855 C29.7453983,10.7917114 30.1865909,10.5144402 30.6504604,10.3086635 C31.1143299,10.1028868 31.5869117,10 32.0682199,10 C32.2286559,10 32.3542127,10.0313892 32.444894,10.0941685 C32.5355752,10.1569479 32.6105605,10.2284455 32.6698521,10.3086635 C32.7291437,10.3888815 32.7866906,10.4673545 32.8424944,10.5440848 C32.8982983,10.6208151 32.968052,10.6766181 33.0517578,10.7114955 C33.1354636,10.7463729 33.220912,10.7690429 33.3081055,10.7795061 C33.395299,10.7899694 33.484235,10.7952009 33.5749163,10.7952009 C33.6516466,10.7952009 33.7301196,10.793457 33.8103376,10.7899693 C33.8905556,10.7864816 33.9690286,10.7847377 34.0457589,10.7847377 C34.1503911,10.7847377 34.2480464,10.7952008 34.3387277,10.8161272 C34.4294089,10.8370537 34.5096258,10.8823936 34.5793806,10.9521484 C34.6491354,11.0219033 34.7031946,11.1195585 34.7415597,11.2451172 C34.7799249,11.3706759 34.7991071,11.5415726 34.7991071,11.7578125 C34.7991071,12.0926356 34.7642303,12.4640744 34.6944754,12.8721401 C34.6247206,13.2802057 34.5479915,13.6987283 34.4642857,14.1277204 C34.3805799,14.5567125 34.3038508,14.9856982 34.234096,15.4146903 C34.1643412,15.8436824 34.1294643,16.2499981 34.1294643,16.6336496 C34.1294643,16.9614972 34.1591096,17.2178423 34.2184012,17.4026925 C34.2776928,17.5875428 34.4049934,17.6799665 34.6003069,17.6799665 C34.746792,17.6799665 34.9002503,17.6433458 35.0606864,17.5701032 C35.2211225,17.4968607 35.3833,17.4009493 35.5472238,17.2823661 C35.7111476,17.1637829 35.8750689,17.0295069 36.0389927,16.879534 C36.2029166,16.7295612 36.3581187,16.5743591 36.5046038,16.413923 C36.8464024,16.037247 37.1916835,15.611749 37.5404576,15.1374163 L38.0426897,17.46024 Z M29.1071429,16.6336496 C29.1071429,16.8080366 29.1193498,16.9771895 29.143764,17.1411133 C29.1681781,17.3050371 29.2117742,17.45152 29.2745536,17.5805664 C29.3373329,17.7096128 29.4210374,17.8142435 29.5256696,17.8944615 C29.6303019,17.9746795 29.762834,18.0147879 29.9232701,18.0147879 C30.1813629,18.0147879 30.415038,17.9031819 30.6243025,17.6799665 C30.8335669,17.4567511 31.0149267,17.1881991 31.1683873,16.8743025 C31.3218479,16.5604058 31.4456608,16.2360508 31.5398298,15.9012277 C31.6339988,15.5664046 31.6950333,15.2873895 31.7229353,15.0641741 L32.3611886,11.9880022 C32.0751939,11.9880022 31.7961788,12.0594998 31.524135,12.2024972 C31.2520913,12.3454946 30.9957462,12.5390613 30.7550921,12.7832031 C30.514438,13.027345 30.2929698,13.30636 30.0906808,13.6202567 C29.8883918,13.9341534 29.7140074,14.2637399 29.5675223,14.6090262 C29.4210372,14.9543126 29.3076873,15.3013375 29.2274693,15.6501116 C29.1472513,15.9988857 29.1071429,16.3267284 29.1071429,16.6336496 Z"/>
    <path d="M41.8066406,12.1791295 C41.3462589,12.4023449 40.9364555,12.6970545 40.5772182,13.0632673 C40.2179809,13.4294801 39.9180397,13.8253327 39.6773856,14.2508371 C39.4367315,14.6763414 39.2536279,15.1053271 39.1280692,15.5378069 C39.0025105,15.9702868 38.9397321,16.3609079 38.9397321,16.7096819 C38.9397321,16.8491915 38.9554267,16.9886991 38.9868164,17.1282087 C39.0182061,17.2677183 39.0757529,17.3932751 39.1594587,17.5048828 C39.2431645,17.6164905 39.3617459,17.7071704 39.5152065,17.7769252 C39.6686671,17.84668 39.8674653,17.8815569 40.1116071,17.8815569 C40.2371658,17.8815569 40.3609787,17.8501677 40.4830497,17.7873884 C40.6051206,17.7246091 40.7219581,17.6426484 40.8335658,17.5415039 C40.9451735,17.4403594 41.051548,17.3252657 41.1526925,17.1962193 C41.253837,17.0671729 41.3462607,16.9328969 41.4299665,16.7933873 C41.62528,16.4725151 41.8031521,16.1097955 41.9635882,15.7052176 C41.9426617,15.6075609 41.9252233,15.4523588 41.9112723,15.2396066 C41.8973214,15.0268544 41.8868583,14.7896916 41.8798828,14.528111 C41.8729073,14.2665305 41.865932,13.9962347 41.8589565,13.7172154 C41.851981,13.4381961 41.8467495,13.1835949 41.8432617,12.953404 C41.839774,12.7232131 41.8345424,12.534878 41.827567,12.3883929 C41.8205915,12.2419077 41.8136161,12.172154 41.8066406,12.1791295 Z M49.0053013,18.0385045 C48.5100422,18.4221559 48.0217658,18.7639494 47.5404576,19.0638951 C47.3381686,19.1894538 47.1254196,19.3132667 46.9022042,19.4353376 C46.6789888,19.5574085 46.4592645,19.6655269 46.2430246,19.7596959 C46.0267846,19.8538649 45.8157795,19.930594 45.6100028,19.9898856 C45.4042261,20.0491772 45.2141471,20.0788225 45.03976,20.0788225 C44.9421033,20.0788225 44.7973642,20.0578964 44.6055385,20.0160435 C44.4137128,19.9741906 44.2044515,19.8887423 43.9777483,19.7596959 C43.7510452,19.6306495 43.5243454,19.4440581 43.2976423,19.1999163 C43.0709392,18.9557744 42.8738848,18.6314194 42.7064732,18.2268415 C42.4483804,18.4779588 42.1745969,18.7168655 41.8851144,18.9435686 C41.5956319,19.1702718 41.2956907,19.3673262 40.9852818,19.5347377 C40.6748729,19.7021493 40.3609809,19.8364253 40.0435965,19.9375698 C39.7262121,20.0387142 39.4070887,20.0892857 39.0862165,20.0892857 C38.6328102,20.0892857 38.2404453,19.9916304 37.9091099,19.796317 C37.5777746,19.6010035 37.3022472,19.3411707 37.0825195,19.0168108 C36.8627919,18.6924509 36.6988705,18.3244998 36.5907506,17.9129464 C36.4826306,17.501393 36.4285714,17.0758951 36.4285714,16.6364397 C36.4285714,16.1900089 36.4861183,15.7383533 36.6012137,15.2814593 C36.7163092,14.8245652 36.8837182,14.3816288 37.1034459,13.9526367 C37.3231735,13.5236446 37.5899817,13.1190728 37.9038783,12.738909 C38.217775,12.3587453 38.5735192,12.0204395 38.9711217,11.7239816 C39.3687241,11.4275236 39.8011974,11.1816416 40.2685547,10.9863281 C40.7359119,10.7910146 41.2346514,10.6689456 41.7647879,10.6201172 C41.7857144,9.72725558 41.8659312,8.84487043 42.0054408,7.97293527 C42.1449505,7.1010001 42.329798,6.27093028 42.5599888,5.48270089 C42.7901797,4.69447151 43.0604756,3.96554464 43.3708845,3.29589844 C43.6812934,2.62625223 44.021343,2.04729597 44.3910435,1.55901228 C44.760744,1.07072859 45.1548528,0.688826712 45.5733817,0.413295201 C45.9919106,0.137763689 46.4243839,0 46.8708147,0 C47.1986624,0 47.4776774,0.0854483643 47.7078683,0.256347656 C47.9380592,0.427246948 48.1246505,0.65394669 48.2676479,0.936453683 C48.4106452,1.21896068 48.5135321,1.54680338 48.5763114,1.91999163 C48.6390907,2.29317988 48.6704799,2.67856944 48.6704799,3.07617188 C48.6704799,3.32031372 48.6600168,3.57142728 48.6390904,3.82952009 C48.5484091,4.81306295 48.3810001,5.7425319 48.1368583,6.6179548 C47.8927164,7.4933777 47.606726,8.3461175 47.2788783,9.17619978 C46.9510307,10.0062821 46.5952865,10.8293765 46.211635,11.6455078 C45.8279836,12.4616391 45.4548009,13.3091474 45.0920759,14.188058 C45.0571985,14.2857148 45.0223216,14.4042962 44.9874442,14.5438058 C44.9525668,14.6833154 44.9194338,14.8350299 44.8880441,14.9989537 C44.8566544,15.1628775 44.8304968,15.3302865 44.8095703,15.5011858 C44.7886439,15.6720851 44.7781808,15.8377503 44.7781808,15.9981864 C44.7781808,16.2004753 44.7903877,16.3922982 44.8148019,16.5736607 C44.8392161,16.7550232 44.8793245,16.9172007 44.9351283,17.0601981 C44.9909322,17.2031955 45.0659175,17.3165453 45.1600865,17.4002511 C45.2542555,17.4839569 45.3710931,17.5258092 45.5106027,17.5258092 C45.6431368,17.5258092 45.7878759,17.4996515 45.9448242,17.4473354 C46.1017725,17.3950193 46.2674377,17.3235217 46.4418248,17.2328404 C46.6162118,17.1421591 46.7923401,17.0392723 46.9702148,16.9241769 C47.1480896,16.8090815 47.3207302,16.6922439 47.4881417,16.5736607 C47.8717932,16.2946415 48.2728774,15.9772618 48.6914062,15.6215123 L49.0053013,18.0385045 Z M46.7243304,4.59333147 C46.7661832,4.10504778 46.7871094,3.71791438 46.7871094,3.43191964 C46.7871094,3.05524365 46.7539763,2.79366703 46.6877093,2.64718192 C46.6214422,2.50069681 46.5255308,2.42745536 46.3999721,2.42745536 C46.1767567,2.42745536 45.9744708,2.56870673 45.7931083,2.85121373 C45.6117457,3.13372072 45.4513121,3.49469646 45.3118025,3.93415179 C45.1722928,4.37360711 45.0502237,4.85839579 44.9455915,5.38853237 C44.8409593,5.91866895 44.7537671,6.43135913 44.6840123,6.9266183 C44.6142575,7.42187748 44.5584545,7.86830158 44.5166016,8.26590402 C44.4747487,8.66350645 44.4468472,8.94600921 44.4328962,9.11342076 C44.4049943,9.45521934 44.3823243,9.78480589 44.3648856,10.1021903 C44.3474469,10.4195747 44.33524,10.7090528 44.3282645,10.9706334 C44.321289,11.2322139 44.3178013,11.4606575 44.3178013,11.655971 L44.3178013,12.210519 C44.7154038,11.3037064 45.081611,10.4003951 45.4164342,9.50055804 C45.5559438,9.11690656 45.6971952,8.71407856 45.8401925,8.29206194 C45.9831899,7.87004532 46.1139782,7.44629119 46.2325614,7.02078683 C46.3511446,6.59528247 46.4540314,6.17675987 46.5412249,5.76520647 C46.6284184,5.35365308 46.689453,4.96303198 46.7243304,4.59333147 Z"/>
    <path d="M53.7946429,11.6322545 C53.8504467,11.3950881 53.9498458,11.184083 54.0928432,10.9992327 C54.2358406,10.8143824 54.3997619,10.6591803 54.5846122,10.5336217 C54.7694624,10.408063 54.9630291,10.3138954 55.1653181,10.2511161 C55.367607,10.1883367 55.5594299,10.1569475 55.7407924,10.1569475 C55.9570323,10.1569475 56.1383921,10.2040313 56.2848772,10.2982003 C56.4313623,10.3923693 56.5046038,10.5405961 56.5046038,10.742885 C56.5046038,10.8056644 56.4941407,10.8789058 56.4732143,10.9626116 C56.4313614,11.1439741 56.3790461,11.3916 56.3162667,11.7054967 C56.2534874,12.0193933 56.1854775,12.3751375 56.1122349,12.77274 C56.0389924,13.1703424 55.9640071,13.5906088 55.8872768,14.0335519 C55.8105465,14.476495 55.737305,14.9176875 55.6675502,15.3571429 C55.4931632,16.3895141 55.3152911,17.498599 55.1339286,18.6844308 C55.343193,18.5658476 55.5698928,18.4193647 55.8140346,18.2449777 C56.0581764,18.0705906 56.3302161,17.8369155 56.6301618,17.5439453 C56.9301075,17.2509751 57.2649256,16.883024 57.6346261,16.4400809 C58.0043266,15.9971379 58.4193615,15.4443393 58.8797433,14.7816685 L59.3819754,17.1044922 C59.2564168,17.3207321 59.0942393,17.5422003 58.8954381,17.7689035 C58.6966368,17.9956066 58.4769125,18.2223063 58.2362584,18.4490095 C57.9956043,18.6757126 57.7444907,18.895437 57.4829102,19.1081892 C57.2213296,19.3209414 56.9649845,19.5214834 56.7138672,19.7098214 C56.1209513,20.1562522 55.4827043,20.5887256 54.7991071,21.0072545 C54.666573,21.753631 54.509627,22.480814 54.3282645,23.1888253 C54.146902,23.8968367 53.9324092,24.5594975 53.6847796,25.1768276 C53.43715,25.7941577 53.1546472,26.360907 52.8372628,26.8770926 C52.5198784,27.3932783 52.1606465,27.8362147 51.7595564,28.2059152 C51.3584662,28.5756157 50.9102982,28.86335 50.4150391,29.0691267 C49.9197799,29.2749034 49.3722128,29.3777902 48.7723214,29.3777902 C48.5351551,29.3777902 48.27881,29.3533764 48.0032785,29.304548 C47.7277469,29.2557196 47.4731457,29.1580643 47.2394671,29.0115792 C47.0057885,28.8650941 46.8122217,28.6558328 46.6587612,28.3837891 C46.5053006,28.1117453 46.4285714,27.7490257 46.4285714,27.2956194 C46.4285714,26.9817228 46.5087883,26.6277224 46.6692243,26.2336077 C46.8296604,25.839493 47.0493848,25.4244581 47.328404,24.9884905 C47.6074233,24.5525229 47.9387537,24.0991234 48.3224051,23.6282785 C48.7060566,23.1574335 49.1228354,22.6883394 49.5727539,22.2209821 C50.0226725,21.7536249 50.4935104,21.29325 50.9852818,20.8398437 C51.4770532,20.3864375 51.9740488,19.9539641 52.4762835,19.5424107 L52.7587891,18.5693359 C52.3821131,18.904159 51.9897481,19.1744549 51.5816825,19.3802316 C51.1736168,19.5860083 50.7777642,19.6888951 50.3941127,19.6888951 C50.0592896,19.6888951 49.7331908,19.6208852 49.4158064,19.4848633 C49.098422,19.3488414 48.8176631,19.1535308 48.5735212,18.8989258 C48.3293794,18.6443207 48.1340688,18.3339165 47.9875837,17.9677037 C47.8410986,17.6014909 47.7678571,17.1881998 47.7678571,16.7278181 C47.7678571,16.1209512 47.7975025,15.5629211 47.8567941,15.0537109 C47.9160857,14.5445008 48.001534,14.0597121 48.1131417,13.5993304 C48.2247494,13.1389486 48.364257,12.6942683 48.5316685,12.2652762 C48.6990801,11.8362841 48.8909029,11.4020669 49.1071429,10.9626116 C49.2675789,10.6487149 49.4977664,10.4098083 49.7977121,10.2458845 C50.0976577,10.0819607 50.3906236,10 50.6766183,10 C50.9207601,10 51.1300214,10.0610345 51.3044085,10.1831055 C51.4787955,10.3051764 51.5659877,10.4952554 51.5659877,10.7533482 C51.5659877,10.8300785 51.5572685,10.913783 51.5398298,11.0044643 C51.5223911,11.0951455 51.4927457,11.1928008 51.4508929,11.297433 C51.3253342,11.6183052 51.2015213,11.9967194 51.0794503,12.4326869 C50.9573794,12.8686545 50.8492611,13.3150786 50.7550921,13.7719727 C50.6609231,14.2288667 50.5859378,14.6770346 50.5301339,15.11649 C50.4743301,15.5559453 50.4464286,15.9430787 50.4464286,16.2779018 C50.4464286,16.4522888 50.4586355,16.6214417 50.4830497,16.7853655 C50.5074638,16.9492893 50.55106,17.0957722 50.6138393,17.2248186 C50.6766186,17.353865 50.7603231,17.4584957 50.8649554,17.5387137 C50.9695876,17.6189318 51.1021197,17.6590402 51.2625558,17.6590402 C51.5206486,17.6590402 51.7543237,17.5474342 51.9635882,17.3242187 C52.1728526,17.1010033 52.3542124,16.8324513 52.507673,16.5185547 C52.6611336,16.204658 52.7849465,15.880303 52.8791155,15.5454799 C52.9732845,15.2106568 53.0343191,14.9316417 53.062221,14.7084263 L53.7946429,11.6322545 Z M48.8978795,27.3688616 C49.1908497,27.3688616 49.4681209,27.2834132 49.7297015,27.112514 C49.991282,26.9416147 50.2319325,26.7166588 50.4516602,26.4376395 C50.6713878,26.1586203 50.8719299,25.8412406 51.0532924,25.4854911 C51.2346549,25.1297415 51.3950886,24.7652781 51.5345982,24.3920898 C51.6741078,24.0189016 51.7926892,23.6544382 51.890346,23.2986886 C51.9880027,22.9429391 52.0647319,22.6255594 52.1205357,22.3465402 C51.8484919,22.5279027 51.5712207,22.7441394 51.2887137,22.9952567 C51.0062067,23.246374 50.7306794,23.5166699 50.4621233,23.8061523 C50.1935673,24.0956348 49.938966,24.3938322 49.6983119,24.7007533 C49.4576578,25.0076745 49.2466527,25.3023842 49.0652902,25.5848912 C48.8839277,25.8673982 48.7409324,26.1307186 48.6363002,26.3748605 C48.531668,26.6190023 48.4793527,26.8212883 48.4793527,26.9817243 C48.4793527,27.2398171 48.6188602,27.3688616 48.8978795,27.3688616 Z"/>
    <g transform="translate(58)">
      <path d="M17.7985026,16.1964738 C17.4560338,16.3405835 17.1240538,16.5310113 16.8025525,16.7677629 C16.4810512,17.0045145 16.1560602,17.2635649 15.8275697,17.5449219 C15.4990792,17.8262789 15.1583629,18.1230717 14.8054103,18.4353093 C14.4524578,18.747547 14.0715544,19.0563488 13.6626886,19.361724 C13.2538228,19.6670993 12.8082706,19.9587454 12.3260187,20.2366712 C11.8437667,20.514597 11.3108514,20.7582074 10.7272566,20.9675095 C10.1436619,21.1768116 9.50066891,21.3432215 8.79825846,21.4667441 C8.09584801,21.5902667 7.31831577,21.652027 6.4656384,21.652027 C5.52210198,21.652027 4.67118467,21.4650304 3.91286095,21.0910315 C3.15453722,20.7170325 2.50630248,20.2126563 1.96813725,19.5778875 C1.42997203,18.9431187 1.01587059,18.2054254 0.725820504,17.3647857 C0.435770417,16.5241459 0.290747549,15.6406296 0.290747549,14.7142103 C0.290747549,14.0828727 0.360638088,13.4052243 0.500421262,12.6812447 C0.640204437,11.9572652 0.841139736,11.219572 1.10323319,10.4681429 C1.36532664,9.71671394 1.68507585,8.96701176 2.06249043,8.21901394 C2.439905,7.47101611 2.86798455,6.75390968 3.34674192,6.06767314 C3.82549929,5.3814366 4.3514256,4.74496176 4.92453661,4.15822952 C5.49764763,3.57149728 6.10918984,3.06025872 6.7591816,2.62449852 C7.40917336,2.18873832 8.09410064,1.84734076 8.81398399,1.60029561 C9.53386734,1.35325045 10.2816961,1.22972973 11.0574927,1.22972973 C11.5607122,1.22972973 12.0709131,1.31722358 12.5881108,1.49221389 C13.1053086,1.66720421 13.5700807,1.93654801 13.982441,2.30025338 C14.3948014,2.66395874 14.7320232,3.12373033 14.9941167,3.67958193 C15.2562101,4.23543352 15.3872549,4.89077959 15.3872549,5.64563978 C15.3872549,6.15345482 15.3051335,6.66640894 15.1408883,7.18451753 C14.9766431,7.70262611 14.7512461,8.20014014 14.4646906,8.67707454 C14.1781351,9.15400893 13.8409132,9.60177156 13.4530149,10.0203758 C13.0651166,10.4389801 12.6475206,10.8009645 12.2002145,11.1063397 C11.7529083,11.411715 11.2881362,11.6536097 10.8058843,11.8320312 C10.3236323,12.0104528 9.8413876,12.0996622 9.35913565,12.0996622 C8.7231222,12.0996622 8.24786654,12.0155994 7.9333544,11.8474715 C7.61884225,11.6793435 7.46158854,11.4374488 7.46158854,11.12178 C7.46158854,11.0668811 7.45984128,11.0016896 7.4563467,10.9262035 C7.45285212,10.8507175 7.45110486,10.7718015 7.45110486,10.6894531 C7.45110486,10.5659305 7.45809391,10.4372631 7.47207223,10.303447 C7.48605054,10.1696309 7.51400676,10.0478257 7.55594171,9.93802787 C7.59787666,9.82823003 7.65903089,9.73902061 7.73940621,9.67039696 C7.81978154,9.60177331 7.92985914,9.56746199 8.06964231,9.56746199 C8.15351221,9.56746199 8.22689728,9.57947095 8.28979971,9.60348923 C8.35270214,9.62750751 8.42259268,9.65324099 8.49947342,9.68069046 C8.57635417,9.70813992 8.66895913,9.7338734 8.77729109,9.75789168 C8.88562305,9.78190996 9.02365687,9.79391892 9.19139668,9.79391892 C9.63870283,9.79391892 10.0912441,9.69784724 10.549034,9.50570101 C11.0068239,9.31355478 11.419178,9.04249542 11.7861089,8.69251478 C12.1530397,8.34253415 12.453569,7.9256517 12.6877058,7.44185494 C12.9218427,6.95805818 13.0389093,6.42451727 13.0389093,5.84121622 C13.0389093,5.53240977 12.996975,5.23904805 12.9131051,4.96112226 C12.8292352,4.68319646 12.6929486,4.43958614 12.5042413,4.23028399 C12.3155341,4.02098185 12.0726644,3.85285642 11.7756252,3.72590266 C11.4785859,3.5989489 11.1169024,3.53547297 10.6905637,3.53547297 C10.1873443,3.53547297 9.69636326,3.64355361 9.21760589,3.85971812 C8.73884852,4.07588263 8.27931822,4.36924435 7.83900123,4.73981208 C7.39868423,5.11037981 6.98108826,5.54956461 6.58620079,6.05737965 C6.19131332,6.56519468 5.82613526,7.10902898 5.49065564,7.68889886 C5.15517602,8.26876874 4.85289944,8.87264783 4.58381683,9.50055427 C4.31473422,10.1284607 4.0858427,10.7546421 3.89713542,11.3791174 C3.70842813,12.0035926 3.56340526,12.6091873 3.46206246,13.1959196 C3.36071966,13.7826518 3.31004902,14.323055 3.31004902,14.8171453 C3.31004902,15.5239689 3.39915946,16.139857 3.577383,16.6648279 C3.75560655,17.1897989 4.00895975,17.6272681 4.33745021,17.9772487 C4.66594067,18.3272294 5.06781127,18.5879953 5.54307407,18.7595545 C6.01833686,18.9311136 6.55299948,19.0168919 7.14707797,19.0168919 C7.8879288,19.0168919 8.57809787,18.9259669 9.21760589,18.7441142 C9.85711391,18.5622615 10.4669089,18.3237979 11.047009,18.0287162 C11.6271092,17.7336345 12.1879808,17.4008148 12.7296406,17.030247 C13.2713004,16.6596793 13.8129521,16.2874016 14.3546119,15.9134027 C14.8962717,15.5394037 15.4484069,15.1825661 16.0110342,14.842879 C16.5736615,14.5031919 17.1694783,14.2166925 17.7985026,13.983372 L17.7985026,16.1964738 Z"/>
      <path d="M22.8083065,11.9658467 C23.0109921,12.3638639 23.1630041,12.7841775 23.2643469,13.2268 C23.3656897,13.6694226 23.4163603,14.0931673 23.4163603,14.4980469 C23.4163603,14.9029264 23.3709314,15.311231 23.2800724,15.722973 C23.1892133,16.1347149 23.0581686,16.5327261 22.8869342,16.9170186 C22.7156998,17.301311 22.5060282,17.6615798 22.257913,17.9978357 C22.0097979,18.3340916 21.7267412,18.6257378 21.4087345,18.8727829 C21.0907278,19.1198281 20.7430223,19.3154026 20.3656078,19.4595122 C19.9881932,19.6036219 19.5863226,19.6756757 19.1599839,19.6756757 C18.5449379,19.6756757 18.0190116,19.5435771 17.5821892,19.2793761 C17.1453668,19.015175 16.7871778,18.6703463 16.5076114,18.2448796 C16.2280451,17.819413 16.0236153,17.3390546 15.8943158,16.8037901 C15.7650164,16.2685256 15.7003676,15.7264069 15.7003676,15.1774177 C15.7003676,14.4225575 15.815687,13.71746 16.0463293,13.0621041 C16.2769715,12.4067482 16.6072043,11.8371804 17.0370376,11.3533837 C17.4668708,10.8695869 17.9927971,10.4887313 18.6148323,10.2108055 C19.2368674,9.93287973 19.9357728,9.79391892 20.7115694,9.79391892 C21.3755395,9.79391892 21.9975653,9.89513729 22.5776654,10.0975771 C23.1577656,10.3000168 23.7011646,10.5710762 24.2078786,10.9107633 C24.7145926,11.2504504 25.1863537,11.6398838 25.6231761,12.0790752 C26.0599985,12.5182666 26.4671109,12.9711759 26.8445255,13.4378167 L26.6453355,14.8891997 C26.4566282,14.6421546 26.2015277,14.3745264 25.8800264,14.086307 C25.5585251,13.7980877 25.2178087,13.5167349 24.8578671,13.2422403 C24.4979254,12.9677457 24.1432309,12.7086953 23.793773,12.4650813 C23.444315,12.2214673 23.1437857,12.017315 22.892176,11.8526182 L22.8083065,11.9658467 Z M19.5688477,17.6993243 C19.8064791,17.6993243 20.0371178,17.5809503 20.2607709,17.3441987 C20.484424,17.1074471 20.6801175,16.8089387 20.8478573,16.4486645 C21.0155971,16.0883903 21.1501364,15.6903791 21.2514792,15.2546189 C21.352822,14.8188587 21.4034926,14.4019762 21.4034926,14.003959 C21.4034926,13.6882902 21.379031,13.3949285 21.3301068,13.1238651 C21.2811827,12.8528016 21.2077977,12.6177692 21.1099494,12.4187606 C21.0121012,12.219752 20.8862983,12.0619199 20.7325368,11.9452597 C20.5787753,11.8285995 20.3935653,11.7702703 20.1769014,11.7702703 C19.8903459,11.7702703 19.6177728,11.8903599 19.3591739,12.1305427 C19.1005751,12.3707254 18.8734308,12.6778117 18.6777344,13.0518106 C18.4820379,13.4258095 18.3282787,13.8392608 18.2164522,14.2921769 C18.1046257,14.7450931 18.0487132,15.1808467 18.0487132,15.599451 C18.0487132,15.8876704 18.0766695,16.1587297 18.1325827,16.4126372 C18.188496,16.6665448 18.2758592,16.8878527 18.3946749,17.0765678 C18.5134906,17.2652828 18.6707443,17.4162526 18.8664407,17.5294816 C19.0621372,17.6427107 19.2962705,17.6993243 19.5688477,17.6993243 Z"/>
      <path d="M24.9595588,17.5243349 C24.9595588,17.0714188 24.987515,16.5481713 25.0434283,15.9545766 C25.0993416,15.360982 25.1692321,14.7571029 25.253102,14.1429212 C25.3369719,13.5287395 25.4313242,12.9368694 25.5361615,12.3672931 C25.6409989,11.7977167 25.7423402,11.3104961 25.8401884,10.9056166 C25.9170692,10.5899477 26.0655866,10.3257506 26.2857451,10.1130173 C26.5059036,9.90028399 26.8046856,9.79391892 27.1821002,9.79391892 C27.5595148,9.79391892 27.8216043,9.90714625 27.9683766,10.1336043 C28.1151489,10.3600624 28.188534,10.6620019 28.188534,11.039432 C28.188534,11.1423675 28.1780504,11.2813283 28.157083,11.4563186 C28.1361155,11.6313089 28.1099065,11.8234523 28.0784553,12.0327544 C28.0470041,12.2420566 28.0138061,12.4582178 27.9788603,12.6812447 C27.9439145,12.9042716 27.9107165,13.1101395 27.8792653,13.2988545 C27.8478141,13.4875696 27.8216051,13.6522639 27.8006376,13.7929424 C27.7796702,13.9336208 27.7691866,14.027977 27.7691866,14.0760135 L27.9788603,14.0760135 C28.0207952,14.0005275 28.0871913,13.8787223 28.1780503,13.7105944 C28.2689094,13.5424664 28.3737452,13.3486075 28.4925609,13.1290118 C28.6113766,12.9094161 28.7389268,12.6778148 28.8752154,12.4342008 C29.011504,12.1905868 29.1390542,11.9572699 29.2578699,11.734243 C29.3766856,11.5112162 29.485016,11.3139261 29.5828642,11.142367 C29.6807124,10.9708078 29.7540975,10.843856 29.8030216,10.7615076 C30.0266747,10.3909399 30.2817751,10.1370362 30.5683307,9.99978885 C30.8548862,9.86254154 31.1728881,9.79391892 31.522346,9.79391892 C31.871804,9.79391892 32.1496189,9.93802643 32.3557991,10.2262458 C32.5619792,10.5144651 32.6650678,10.9124763 32.6650678,11.4202914 C32.6650678,11.4957774 32.6493424,11.6227293 32.6178912,11.8011508 C32.58644,11.9795723 32.5462529,12.1923024 32.4973288,12.4393476 C32.4484047,12.6863927 32.3942395,12.9574521 32.3348317,13.2525338 C32.2754238,13.5476155 32.2212587,13.849555 32.1723346,14.1583615 C32.1234104,14.4671679 32.0832234,14.7725386 32.0517722,15.0744827 C32.020321,15.3764268 32.0045956,15.6543484 32.0045956,15.9082559 C32.0045956,16.3337226 32.0587608,16.683698 32.1670927,16.9581926 C32.2754247,17.2326872 32.4449092,17.3699324 32.6755515,17.3699324 C32.7803889,17.3699324 32.90095,17.3390523 33.0372386,17.277291 C33.1735272,17.2155297 33.3202974,17.1348981 33.4775534,17.0353938 C33.6348095,16.9358895 33.7955577,16.8209466 33.959803,16.6905617 C34.1240482,16.5601767 34.2865437,16.4263626 34.4472943,16.2891153 C34.8177198,15.9665841 35.2056123,15.6028842 35.6109835,15.1980046 L35.7892061,17.5037479 L35.2650218,17.8949008 C34.9784663,18.1076341 34.6866733,18.3203642 34.3896341,18.5330976 C34.0925948,18.7458309 33.7833292,18.9362587 33.4618279,19.1043866 C33.1403266,19.2725146 32.804852,19.4097598 32.4553941,19.5161265 C32.1059361,19.6224931 31.7390108,19.6756757 31.3546071,19.6756757 C30.9702033,19.6756757 30.6469596,19.4029007 30.3848662,18.8573427 C30.1227727,18.3117846 29.9917279,17.5140466 29.9917279,16.4641047 C29.9917279,16.0523628 30.0196842,15.6080313 30.0755974,15.1310969 C30.1315107,14.6541625 30.2014012,14.1412084 30.2852711,13.5922192 L30.1175322,13.5922192 L27.3708065,18.9448374 C27.2310234,19.2261944 27.0737696,19.4183377 26.8990407,19.5212732 C26.7243117,19.6242087 26.5216291,19.6756757 26.2909869,19.6756757 C26.0044314,19.6756757 25.7737926,19.6156309 25.5990636,19.4955395 C25.4243347,19.3754481 25.2897954,19.2141849 25.1954418,19.0117451 C25.1010881,18.8093054 25.0381866,18.5794196 25.0067354,18.3220809 C24.9752842,18.0647422 24.9595588,17.7988295 24.9595588,17.5243349 Z"/>
      <path d="M34.3501455,20.0668285 C34.3501455,20.0325167 34.3588818,19.8232177 34.3763547,19.4389253 C34.3938276,19.0546328 34.4270256,18.5433942 34.4759498,17.9051943 C34.5248739,17.2669943 34.5912699,16.5310166 34.6751398,15.6972392 C34.7590097,14.8634618 34.8690873,13.9816611 35.0053759,13.0518106 C35.1416645,12.1219601 35.3024127,11.1681056 35.4876254,10.1902185 C35.6728381,9.21233147 35.8929933,8.26019255 36.1480976,7.33377323 C36.4032019,6.4073539 36.6949949,5.534131 37.0234854,4.71407834 C37.3519758,3.89402567 37.7206484,3.17691924 38.1295142,2.56273754 C38.53838,1.94855584 38.9944158,1.46305077 39.4976352,1.10620777 C40.0008546,0.74936477 40.5529899,0.570945946 41.1540575,0.570945946 C41.3916889,0.570945946 41.6415476,0.612119521 41.903641,0.694467905 C42.1657345,0.77681629 42.4051096,0.910630408 42.6217735,1.09591427 C42.8384374,1.28119814 43.0184056,1.52652402 43.1616833,1.83189928 C43.3049611,2.13727454 43.3765989,2.51298341 43.3765989,2.95903716 C43.3765989,3.36391672 43.3119501,3.828835 43.1826507,4.35380595 C43.0533513,4.87877691 42.8716359,5.43976686 42.637499,6.03679265 C42.4033622,6.63381844 42.1272946,7.25485319 41.8092879,7.89991554 C41.4912812,8.54497789 41.1435757,9.18831499 40.7661612,9.82994616 C40.3887466,10.4715773 39.9921178,11.1029055 39.5762628,11.7239495 C39.1604079,12.3449936 38.7358229,12.9265703 38.302495,13.4686972 L38.2815277,13.6333932 C38.4213108,13.5647695 38.5261466,13.5201648 38.5960382,13.4995777 C38.6659298,13.4789906 38.7393149,13.4686972 38.8161956,13.4686972 C38.9070547,13.4686972 38.9804397,13.477275 39.036353,13.494431 C39.0922663,13.5115869 39.1429369,13.5304581 39.1883665,13.5510452 C39.233796,13.5716323 39.2809721,13.5905035 39.3298962,13.6076594 C39.3788203,13.6248153 39.4382273,13.6333932 39.5081189,13.6333932 C40.2000456,13.6333932 40.8115878,13.5527616 41.3427639,13.391496 C41.8739399,13.2302304 42.3212394,13.050096 42.6846756,12.8510874 C43.1110143,12.6246294 43.4814342,12.3604323 43.7959463,12.0584882 L43.5653052,14.5598079 C43.1040207,14.806853 42.621776,14.9989964 42.1185566,15.1362437 C41.6153372,15.273491 41.1505651,15.3764249 40.7242264,15.4450486 C40.2279961,15.5205346 39.7352678,15.5685704 39.2460267,15.5891575 C39.4976364,16.0420736 39.7247807,16.5121386 39.9274663,16.9993666 C40.1021953,17.4179708 40.2611962,17.8863203 40.404474,18.4044288 C40.5477518,18.9225374 40.6193896,19.4457849 40.6193896,19.9741871 C40.6193896,20.0359484 40.6106532,20.1663314 40.5931803,20.3653399 C40.5757074,20.5643485 40.546004,20.8079589 40.504069,21.0961782 C40.4621341,21.3843976 40.4027271,21.7034928 40.3258464,22.0534734 C40.2489656,22.403454 40.1493716,22.7568605 40.0270613,23.1137035 C39.904751,23.4705465 39.7562336,23.8153752 39.5815047,24.1482 C39.4067757,24.4810247 39.2023459,24.776102 38.9682091,25.0334407 C38.7340722,25.2907794 38.4649937,25.4983628 38.1609653,25.6561972 C37.8569369,25.8140316 37.512726,25.8929476 37.1283222,25.8929476 C36.7439185,25.8929476 36.4084439,25.8071694 36.1218884,25.6356102 C35.8353329,25.4640511 35.590716,25.2324497 35.3880304,24.9407992 C35.1853448,24.6491487 35.0158602,24.3094667 34.8795717,23.921743 C34.7432831,23.5340194 34.6367,23.1239992 34.5598192,22.6916702 C34.4829385,22.2593412 34.4287733,21.8184408 34.3973221,21.3689559 C34.3658709,20.9194709 34.3501455,20.4854328 34.3501455,20.0668285 Z M37.1492896,15.1259502 C37.121333,15.1259502 37.0898822,15.2031506 37.0549364,15.3575538 C37.0199906,15.5119571 36.9867926,15.7109627 36.9553414,15.9545766 C36.9238902,16.1981906 36.8941867,16.4709656 36.8662301,16.7729096 C36.8382735,17.0748537 36.8138118,17.3716466 36.7928443,17.6632971 C36.7718768,17.9549476 36.7544042,18.226007 36.7404259,18.4764833 C36.7264475,18.7269597 36.7194585,18.9242497 36.7194585,19.0683594 C36.7194585,20.0771271 36.7386784,20.8800118 36.7771188,21.4770376 C36.8155591,22.0740634 36.8644825,22.5269727 36.9238904,22.8357791 C36.9832982,23.1445856 37.0496942,23.3453068 37.1230804,23.4379487 C37.1964666,23.5305906 37.2715989,23.5769109 37.3484796,23.5769109 C37.586111,23.5769109 37.7765627,23.4705458 37.9198405,23.2578125 C38.0631182,23.0450792 38.1714486,22.7757354 38.2448348,22.449773 C38.3182209,22.1238107 38.3671443,21.766973 38.3916063,21.3792494 C38.4160684,20.9915257 38.4282992,20.619248 38.4282992,20.262405 C38.4282992,20.0222222 38.4090794,19.7271449 38.370639,19.3771643 C38.3321986,19.0271836 38.2797807,18.6617682 38.2133837,18.2809069 C38.1469867,17.9000456 38.0701071,17.5209056 37.9827426,17.1434755 C37.8953781,16.7660454 37.8045204,16.428079 37.7101668,16.1295661 C37.6158131,15.8310532 37.5197136,15.5891584 37.4218654,15.4038746 C37.3240172,15.2185907 37.2331595,15.1259502 37.1492896,15.1259502 Z M39.6968252,3.89574535 C39.291454,4.88392597 38.9734521,5.75371774 38.7428098,6.50514675 C38.5121676,7.25657576 38.3374412,7.92393078 38.2186255,8.50723184 C38.0998098,9.0905329 38.0159412,9.60348702 37.9670171,10.0461096 C37.918093,10.4887322 37.8691696,10.8987523 37.8202455,11.2761824 C38.2465842,10.4870104 38.676411,9.70985919 39.1097388,8.94470545 C39.5430667,8.17955171 39.9344537,7.46930754 40.2839116,6.81395165 C40.6333695,6.15859575 40.9181735,5.58045014 41.138332,5.07949747 C41.3584905,4.57854479 41.4685681,4.19768923 41.4685681,3.93691934 C41.4685681,3.57321398 41.4161502,3.30730131 41.3113128,3.13917335 C41.2064754,2.9710454 41.0631998,2.88698269 40.8814817,2.88698269 C40.5599804,2.88698269 40.3153635,2.9710454 40.1476237,3.13917335 C39.9798839,3.30730131 39.8296192,3.55948945 39.6968252,3.89574535 Z"/>
      <path d="M45.6795152,19.6756757 C45.0225342,19.6756757 44.4476846,19.5590172 43.9549489,19.3256968 C43.4622132,19.0923764 43.0516063,18.7784279 42.7231158,18.3838418 C42.3946253,17.9892558 42.1482612,17.5329154 41.984016,17.0148068 C41.8197707,16.4966982 41.7376494,15.9528639 41.7376494,15.3832876 C41.7376494,14.9989951 41.7760892,14.5924061 41.8529699,14.1635082 C41.9298506,13.7346104 42.0469173,13.3142968 42.2041734,12.9025549 C42.3614294,12.490813 42.5588702,12.0979484 42.7965016,11.7239495 C43.034133,11.3499506 43.3119479,11.020562 43.6299546,10.7357739 C43.9479613,10.4509857 44.3044031,10.224531 44.6992906,10.0564031 C45.094178,9.88827513 45.5327412,9.80421242 46.0149931,9.80421242 C46.406386,9.80421242 46.7698168,9.86597278 47.1052964,9.98949535 C47.440776,10.1130179 47.732569,10.2862901 47.9806842,10.5093169 C48.2287993,10.7323438 48.4227455,11.0016876 48.5625287,11.3173564 C48.7023119,11.6330252 48.7722024,11.9864317 48.7722024,12.3775866 C48.7722024,12.8030532 48.6656194,13.2285135 48.45245,13.6539802 C48.2392807,14.0794468 47.9439932,14.4808892 47.5665786,14.8583193 C47.189164,15.2357494 46.7401173,15.5720002 46.219425,15.8670819 C45.6987327,16.1621636 45.1343666,16.3920494 44.5263097,16.5567462 C44.6311471,16.7420301 44.7342357,16.896431 44.8355785,17.0199535 C44.9369213,17.1434761 45.0400098,17.2395478 45.1448472,17.3081715 C45.2496846,17.3767951 45.3597622,17.4248309 45.4750833,17.4522804 C45.5904044,17.4797299 45.7144601,17.4934544 45.8472541,17.4934544 C46.2666037,17.4934544 46.7086613,17.4111072 47.1734404,17.2464105 C47.6382194,17.0817137 48.0907607,16.8758458 48.5310777,16.6288007 C48.9713947,16.3817555 49.3872434,16.1124117 49.7786363,15.8207612 C50.1700291,15.5291107 50.5020092,15.2529046 50.7745864,14.9921347 L52.1269818,16.3714633 C51.5119359,16.9959385 50.8584593,17.5483506 50.1665326,18.0287162 C49.8659988,18.2345872 49.5427551,18.4370239 49.1967917,18.6360325 C48.8508283,18.8350411 48.4873975,19.0117444 48.1064884,19.1661476 C47.7255792,19.3205508 47.3306977,19.4440715 46.9218319,19.5367135 C46.5129661,19.6293554 46.0988647,19.6756757 45.6795152,19.6756757 Z M44.285185,14.8377323 C44.5367947,14.8377323 44.8111151,14.7742563 45.1081543,14.6473026 C45.4051935,14.5203488 45.6812612,14.3573701 45.9363655,14.1583615 C46.1914698,13.9593529 46.4063832,13.7431916 46.5811121,13.5098712 C46.7558411,13.2765508 46.8432043,13.0500961 46.8432043,12.8305004 C46.8432043,12.521694 46.7855446,12.2677903 46.6702235,12.0687817 C46.5549023,11.8697731 46.413374,11.7702703 46.2456342,11.7702703 C45.9451004,11.7702703 45.6882526,11.8251684 45.4750833,11.9349662 C45.261914,12.0447641 45.0836931,12.187156 44.9404153,12.3621463 C44.7971376,12.5371366 44.6818182,12.7361423 44.5944537,12.9591691 C44.5070892,13.182196 44.4406932,13.4069351 44.3952637,13.6333932 C44.3498341,13.8598512 44.3201307,14.0794436 44.3061523,14.2921769 C44.292174,14.5049103 44.285185,14.6867602 44.285185,14.8377323 Z"/>
      <path d="M58.7310049,17.3699324 C58.0600457,17.7542249 57.4624816,18.0904758 56.9382947,18.3786951 C56.4141077,18.6669144 55.9475884,18.9070936 55.5387226,19.0992399 C55.1298568,19.2913861 54.766426,19.4354936 54.4484193,19.5315667 C54.1304126,19.6276398 53.8421141,19.6756757 53.5835152,19.6756757 C53.0523392,19.6756757 52.5840726,19.5178436 52.1787014,19.2021748 C51.7733302,18.886506 51.434361,18.4318811 51.1617839,17.8382865 C50.8892067,17.2446919 50.6847768,16.5258699 50.5484882,15.681799 C50.4121996,14.837728 50.3440564,13.8873047 50.3440564,12.8305004 C50.3440564,12.4187585 50.361529,11.9795737 50.3964748,11.5129329 C50.4314206,11.046292 50.480344,10.5830893 50.5432464,10.1233108 C50.3335716,10.0958613 50.1710761,10.0701279 50.055755,10.0461096 C49.9404339,10.0220913 49.8181255,9.99807339 49.688826,9.97405511 C49.5595266,9.95003683 49.3952838,9.92430335 49.1960928,9.89685389 C48.9969018,9.86940442 48.7086033,9.83509311 48.3311887,9.79391892 C48.1634489,9.77333182 48.0341514,9.73387381 47.9432924,9.67554371 C47.8524333,9.6172136 47.7860373,9.54859098 47.7441023,9.46967378 C47.7021674,9.39075657 47.6777057,9.30840942 47.6707165,9.22262986 C47.6637274,9.13685029 47.6602328,9.06308097 47.6602328,9.00131968 C47.6602328,8.86407237 47.7283761,8.75942287 47.8646647,8.68736803 C48.0009533,8.6153132 48.1756797,8.56213066 48.388849,8.52781883 C48.6020183,8.49350701 48.8361516,8.47463579 49.0912559,8.4712046 C49.3463602,8.46777342 49.5909771,8.46948899 49.8251139,8.47635135 C50.0592507,8.48321372 50.2689224,8.48836041 50.4541351,8.4917916 C50.6393478,8.49522278 50.766898,8.49007608 50.8367896,8.47635135 C51.0254969,7.54993202 51.264872,6.65269121 51.5549221,5.78460198 C51.8449722,4.91651276 52.1699632,4.14450824 52.5299048,3.46856524 C52.8898465,2.79262225 53.2829808,2.25050352 53.7093195,1.84219278 C54.1356582,1.43388204 54.5829576,1.22972973 55.0512312,1.22972973 C55.3517651,1.22972973 55.6260854,1.31207688 55.8742006,1.47677365 C56.1223157,1.64147042 56.3337346,1.86106282 56.5084635,2.13555743 C56.6831925,2.41005205 56.8177318,2.73086282 56.9120854,3.09799937 C57.0064391,3.46513592 57.0536152,3.84770705 57.0536152,4.24572424 C57.0536152,4.58198014 57.0046918,4.93710223 56.9068436,5.31110114 C56.8089954,5.68510005 56.6762034,6.06595562 56.5084635,6.45367927 C56.3407237,6.84140291 56.143283,7.23426744 55.9161353,7.63228463 C55.6889876,8.03030182 55.4496125,8.42488191 55.1980028,8.81603674 C55.2609053,8.82289911 55.3657411,8.8280458 55.5125134,8.83147698 C55.6592857,8.83490817 55.8287703,8.84005486 56.0209722,8.84691723 C56.213174,8.8537796 56.4210984,8.86235742 56.6447515,8.87265097 C56.8684045,8.88294452 57.0850652,8.89152235 57.29474,8.89838471 C57.5044147,8.90524708 57.7001082,8.91210934 57.8818264,8.91897171 C58.0635445,8.92583407 58.2138091,8.93269633 58.3326248,8.9395587 C58.472408,8.94642106 58.5737493,9.01504369 58.6366517,9.14542863 C58.6995542,9.27581357 58.7310049,9.44050787 58.7310049,9.63951647 C58.7310049,9.87969926 58.6611144,10.0752737 58.5213312,10.2262458 C58.381548,10.3772178 58.2277888,10.4527027 58.060049,10.4527027 L54.0343137,10.4527027 C53.8316281,10.7271973 53.6271983,10.9965411 53.4210181,11.2607422 C53.2148379,11.5249433 53.0243862,11.7634069 52.8496572,11.9761402 C52.8217006,12.4016069 52.7972389,12.8202049 52.7762714,13.2319468 C52.7692823,13.4103683 52.7622932,13.5939338 52.7553041,13.7826489 C52.7483149,13.9713639 52.7413259,14.1583606 52.7343367,14.3436444 C52.7273475,14.5289283 52.7221058,14.7073471 52.7186112,14.8789062 C52.7151166,15.0504654 52.7133693,15.2082974 52.7133693,15.3524071 C52.7133693,15.7229748 52.7483146,16.0352078 52.8182062,16.2891153 C52.8880978,16.5430228 52.9894391,16.7506062 53.1222331,16.9118718 C53.2550271,17.0731374 53.4175226,17.1897959 53.6097245,17.2618507 C53.8019263,17.3339056 54.0168397,17.3699324 54.2544711,17.3699324 C54.4012435,17.3699324 54.5847061,17.3356211 54.8048646,17.2669975 C55.0250231,17.1983738 55.2661455,17.1040177 55.5282389,16.9839263 C55.7903324,16.8638349 56.0664,16.721443 56.3564501,16.5567462 C56.6465002,16.3920494 56.9330514,16.211915 57.2161123,16.0163376 C57.4991733,15.8207602 57.7699991,15.6148923 58.028598,15.3987278 C58.2871968,15.1825633 58.5213301,14.9612554 58.7310049,14.7347973 L58.7310049,17.3699324 Z M55.3762255,4.33836571 C55.3762255,4.26287969 55.3709837,4.17881698 55.3605,4.08617504 C55.3500162,3.99353311 55.3273018,3.90603926 55.292356,3.82369088 C55.2574102,3.74134249 55.203245,3.67271987 55.1298589,3.61782095 C55.0564727,3.56292202 54.9533842,3.53547297 54.8205902,3.53547297 C54.638872,3.53547297 54.4554094,3.69330501 54.2701967,4.00897382 C54.0849839,4.32464263 53.9067631,4.72780055 53.7355287,5.21845967 C53.5642943,5.7091188 53.4035461,6.24952196 53.2532791,6.83968539 C53.1030122,7.42984881 52.9649784,8.00284773 52.8391736,8.55869932 C52.9440109,8.57242406 53.0488467,8.58443301 53.1536841,8.59472656 C53.2585215,8.60502011 53.3668518,8.61702907 53.4786784,8.6307538 C53.6883531,8.28077317 53.9067611,7.90163316 54.1339087,7.49332242 C54.3610564,7.08501168 54.5654862,6.68356933 54.7472044,6.28898332 C54.9289225,5.89439731 55.0791871,5.5255507 55.1980028,5.18243243 C55.3168185,4.83931416 55.3762255,4.5579614 55.3762255,4.33836571 Z"/>
      <path d="M65.8878676,17.3699324 C65.2169084,17.7542249 64.6193443,18.0904758 64.0951574,18.3786951 C63.5709705,18.6669144 63.1044511,18.9070936 62.6955854,19.0992399 C62.2867196,19.2913861 61.9232888,19.4354936 61.6052821,19.5315667 C61.2872753,19.6276398 60.9989769,19.6756757 60.740378,19.6756757 C60.2092019,19.6756757 59.7409353,19.5178436 59.3355641,19.2021748 C58.9301929,18.886506 58.5912238,18.4318811 58.3186466,17.8382865 C58.0460694,17.2446919 57.8416396,16.5258699 57.705351,15.681799 C57.5690624,14.837728 57.5009191,13.8873047 57.5009191,12.8305004 C57.5009191,12.4187585 57.5183918,11.9795737 57.5533375,11.5129329 C57.5882833,11.046292 57.6372067,10.5830893 57.7001091,10.1233108 C57.4904344,10.0958613 57.3279389,10.0701279 57.2126178,10.0461096 C57.0972966,10.0220913 56.9749882,9.99807339 56.8456888,9.97405511 C56.7163893,9.95003683 56.5521466,9.92430335 56.3529555,9.89685389 C56.1537645,9.86940442 55.865466,9.83509311 55.4880515,9.79391892 C55.3203117,9.77333182 55.1910142,9.73387381 55.1001551,9.67554371 C55.009296,9.6172136 54.9429,9.54859098 54.9009651,9.46967378 C54.8590301,9.39075657 54.8345684,9.30840942 54.8275793,9.22262986 C54.8205901,9.13685029 54.8170956,9.06308097 54.8170956,9.00131968 C54.8170956,8.86407237 54.8852389,8.75942287 55.0215275,8.68736803 C55.1578161,8.6153132 55.3325424,8.56213066 55.5457117,8.52781883 C55.7588811,8.49350701 55.9930144,8.47463579 56.2481187,8.4712046 C56.503223,8.46777342 56.7478399,8.46948899 56.9819767,8.47635135 C57.2161135,8.48321372 57.4257851,8.48836041 57.6109978,8.4917916 C57.7962105,8.49522278 57.9237608,8.49007608 57.9936523,8.47635135 C58.1823596,7.54993202 58.4217347,6.65269121 58.7117848,5.78460198 C59.0018349,4.91651276 59.3268259,4.14450824 59.6867676,3.46856524 C60.0467093,2.79262225 60.4398435,2.25050352 60.8661822,1.84219278 C61.2925209,1.43388204 61.7398203,1.22972973 62.208094,1.22972973 C62.5086278,1.22972973 62.7829482,1.31207688 63.0310633,1.47677365 C63.2791784,1.64147042 63.4905973,1.86106282 63.6653263,2.13555743 C63.8400553,2.41005205 63.9745945,2.73086282 64.0689482,3.09799937 C64.1633018,3.46513592 64.2104779,3.84770705 64.2104779,4.24572424 C64.2104779,4.58198014 64.1615546,4.93710223 64.0637063,5.31110114 C63.9658581,5.68510005 63.8330661,6.06595562 63.6653263,6.45367927 C63.4975865,6.84140291 63.3001457,7.23426744 63.072998,7.63228463 C62.8458504,8.03030182 62.6064753,8.42488191 62.3548656,8.81603674 C62.417768,8.82289911 62.5226038,8.8280458 62.6693761,8.83147698 C62.8161485,8.83490817 62.985633,8.84005486 63.1778349,8.84691723 C63.3700368,8.8537796 63.5779611,8.86235742 63.8016142,8.87265097 C64.0252673,8.88294452 64.2419279,8.89152235 64.4516027,8.89838471 C64.6612775,8.90524708 64.856971,8.91210934 65.0386891,8.91897171 C65.2204072,8.92583407 65.3706719,8.93269633 65.4894876,8.9395587 C65.6292708,8.94642106 65.730612,9.01504369 65.7935145,9.14542863 C65.8564169,9.27581357 65.8878676,9.44050787 65.8878676,9.63951647 C65.8878676,9.87969926 65.8179771,10.0752737 65.6781939,10.2262458 C65.5384108,10.3772178 65.3846516,10.4527027 65.2169118,10.4527027 L61.1911765,10.4527027 C60.9884909,10.7271973 60.784061,10.9965411 60.5778809,11.2607422 C60.3717007,11.5249433 60.181249,11.7634069 60.00652,11.9761402 C59.9785634,12.4016069 59.9541017,12.8202049 59.9331342,13.2319468 C59.926145,13.4103683 59.919156,13.5939338 59.9121668,13.7826489 C59.9051777,13.9713639 59.8981886,14.1583606 59.8911994,14.3436444 C59.8842103,14.5289283 59.8789685,14.7073471 59.8754739,14.8789062 C59.8719793,15.0504654 59.8702321,15.2082974 59.8702321,15.3524071 C59.8702321,15.7229748 59.9051773,16.0352078 59.9750689,16.2891153 C60.0449605,16.5430228 60.1463018,16.7506062 60.2790958,16.9118718 C60.4118898,17.0731374 60.5743853,17.1897959 60.7665872,17.2618507 C60.9587891,17.3339056 61.1737025,17.3699324 61.4113339,17.3699324 C61.5581062,17.3699324 61.7415689,17.3356211 61.9617274,17.2669975 C62.1818859,17.1983738 62.4230082,17.1040177 62.6851017,16.9839263 C62.9471951,16.8638349 63.2232628,16.721443 63.5133128,16.5567462 C63.8033629,16.3920494 64.0899141,16.211915 64.3729751,16.0163376 C64.656036,15.8207602 64.9268618,15.6148923 65.1854607,15.3987278 C65.4440596,15.1825633 65.6781929,14.9612554 65.8878676,14.7347973 L65.8878676,17.3699324 Z M62.5330882,4.33836571 C62.5330882,4.26287969 62.5278464,4.17881698 62.5173627,4.08617504 C62.506879,3.99353311 62.4841645,3.90603926 62.4492187,3.82369088 C62.414273,3.74134249 62.3601078,3.67271987 62.2867216,3.61782095 C62.2133355,3.56292202 62.1102469,3.53547297 61.9774529,3.53547297 C61.7957348,3.53547297 61.6122721,3.69330501 61.4270594,4.00897382 C61.2418467,4.32464263 61.0636258,4.72780055 60.8923914,5.21845967 C60.721157,5.7091188 60.5604088,6.24952196 60.4101419,6.83968539 C60.259875,7.42984881 60.1218412,8.00284773 59.9960363,8.55869932 C60.1008737,8.57242406 60.2057095,8.58443301 60.3105469,8.59472656 C60.4153843,8.60502011 60.5237146,8.61702907 60.6355411,8.6307538 C60.8452159,8.28077317 61.0636238,7.90163316 61.2907715,7.49332242 C61.5179191,7.08501168 61.722349,6.68356933 61.9040671,6.28898332 C62.0857852,5.89439731 62.2360499,5.5255507 62.3548656,5.18243243 C62.4736813,4.83931416 62.5330882,4.5579614 62.5330882,4.33836571 Z"/>
      <path d="M72.1277574,17.4831609 C71.8761476,17.709619 71.5633875,17.9515137 71.1894675,18.2088524 C70.8155475,18.4661911 70.4119296,18.7029392 69.9786018,18.9191037 C69.545274,19.1352682 69.1032163,19.3154026 68.6524156,19.4595122 C68.2016148,19.6036219 67.7735353,19.6756757 67.3681641,19.6756757 C67.0047278,19.6756757 66.6989567,19.6259243 66.4508416,19.52642 C66.2027264,19.4269157 66.0017911,19.2879549 65.8480296,19.1095334 C65.6942681,18.9311119 65.5841906,18.713235 65.5177935,18.4558963 C65.4513965,18.1985576 65.4181985,17.9154893 65.4181985,17.6066829 C65.4181985,17.1743538 65.4688692,16.6716931 65.570212,16.0986856 C65.6715548,15.5256781 65.7956105,14.9320924 65.9423828,14.3179107 C66.0891551,13.703729 66.2446616,13.0912721 66.4089068,12.4805215 C66.5731521,11.869771 66.7181749,11.3070655 66.8439798,10.7923881 C66.8929039,10.6139666 66.9907506,10.4612813 67.137523,10.3343275 C67.2842953,10.2073737 67.4502853,10.1044398 67.635498,10.0255226 C67.8207108,9.94660539 68.0129097,9.88827616 68.2121008,9.85053315 C68.4112918,9.81279014 68.5912599,9.79391892 68.7520106,9.79391892 C69.0455552,9.79391892 69.2447433,9.84710145 69.3495807,9.95346812 C69.454418,10.0598348 69.5068359,10.2022267 69.5068359,10.3806482 C69.5068359,10.5316203 69.4718907,10.7494971 69.4019991,11.0342853 C69.3321075,11.3190734 69.2447443,11.6415998 69.1399069,12.0018739 C69.0350696,12.3621481 68.9232447,12.749866 68.804429,13.1650391 C68.6856133,13.5802122 68.5737884,13.995379 68.4689511,14.4105522 C68.3641137,14.8257253 68.2767505,15.2305987 68.2068589,15.6251848 C68.1369673,16.0197708 68.1020221,16.3748928 68.1020221,16.6905617 C68.1020221,16.9993681 68.1369673,17.244694 68.2068589,17.4265467 C68.2767505,17.6083993 68.4200261,17.6993243 68.63669,17.6993243 C68.8882997,17.6993243 69.1678619,17.613546 69.4753849,17.4419869 C69.7829079,17.2704278 70.0939208,17.0628443 70.4084329,16.8192304 C70.722945,16.5756164 71.0304634,16.3234282 71.3309972,16.0626584 C71.6315311,15.8018885 71.8971151,15.5788649 72.1277574,15.3935811 L72.1277574,17.4831609 Z"/>
      <path fill-rule="nonzero" d="M72.2843137,5.66177606 C72.2843137,7.75783784 69.4215686,9.27567568 69.4215686,9.27567568 C69.4215686,9.27567568 66.5588235,7.75783784 66.5588235,5.66177606 C66.5588235,4.86671815 67.2251539,4.21621622 68.0395577,4.21621622 C68.6812015,4.21621622 69.2241451,4.62578398 69.4215686,5.17993031 C69.6189921,4.62580656 70.1619357,4.21621622 70.8035795,4.21621622 C71.6179833,4.21621622 72.2843137,4.86671815 72.2843137,5.66177606 Z" transform="rotate(10 69.422 6.746)"/>
    </g>
  </g>
</svg>
