<svg xmlns="http://www.w3.org/2000/svg" width="373" height="289" viewBox="0 0 373 289">
  <g fill="none" fill-rule="evenodd" transform="translate(-24 -31)">
    <path fill="#E0EAF6" d="M217.121094,319.203125 C320.1222,319.203125 397,302.473762 397,199.472656 C397,96.4715504 330.356575,31.046875 227.355469,31.046875 C124.354363,31.046875 24,96.4715504 24,199.472656 C24,302.473762 114.119988,319.203125 217.121094,319.203125 Z"/>
    <g transform="translate(122 36)">
      <rect width="14.444" height="22.222" x="147.778" y="64.444" fill="#C79369"/>
      <path fill="#EBF8FF" d="M47.8271448,20.8018184 C81.4957917,14.1002518 117.287736,50.1185873 130,102.217374 C115.299295,119.44761 94.8575672,132.070433 70.8435255,136.850177 C46.8281078,141.631298 23.122309,137.797302 2.96405466,127.505758 C-5.17272995,74.4956908 14.1571218,27.503385 47.8271448,20.8018184 Z"/>
      <path fill="#080808" d="M140.04952,91.715032 C134.214374,109.311694 121.586882,133.444415 105.555556,150.207066 L110.3095,154.444444 C127.35933,140.792502 146.287331,116.155527 152.370485,103.141114 C159.636553,87.5958166 145.936219,73.9644837 140.04952,91.715032 Z"/>
      <path fill="#C79369" d="M77.2657713,105.568741 C85.0249056,120.878514 99.8333613,141.224948 116.666667,154.341224 L112.979544,158.888889 C95.6665221,148.76527 75.1014692,128.837975 67.7704539,117.764306 C59.0142345,104.53626 69.4410943,90.1262398 77.2657713,105.568741 Z"/>
      <rect width="15.556" height="22.222" x="54.444" y="82.222" fill="#C79369"/>
      <path fill="#E7B791" d="M57.7528072,147.777778 L52.2222222,117.783673 L55.0887009,96.6666667 C60.3670136,97.5386611 65.7437402,97.5094555 71.2133363,96.6666667 C74.950293,98.5872796 78.6331913,108.430942 77.6019243,116.653001 L74.3334733,147.774996 L57.7528072,147.777778 Z"/>
      <path fill="#FFF" d="M64.9986188,143.333333 C99.4523066,143.333333 127.657508,185.855 130,239.694536 C112.163362,253.792695 89.5740634,262.222222 64.9986188,262.222222 C40.4231742,262.222222 17.8352564,253.792695 0,239.694536 C2.34111047,185.855 30.544931,143.333333 64.9986188,143.333333 Z"/>
      <path fill="#FFF" d="M52.2222222,116.719097 C54.207235,116.753812 68.7801674,103.9969 77.2303334,107.175366 C77.7640135,109.924761 77.9469896,112.847728 77.6018302,115.591568 L74.3664812,146.352847 L74.3332129,146.666667 L57.7530888,146.666667 L52.2222222,116.719097 Z"/>
      <path fill="#E7B791" d="M69.489025,106.679815 C77.2465617,121.988202 92.0546298,142.336047 108.888889,155.452332 L105.201863,160 C87.8878997,149.877771 67.3247796,129.950463 59.9925618,118.876787 C51.2365716,105.647334 61.6631584,91.2373041 69.489025,106.679815 Z"/>
      <path fill="#E7B791" d="M110.778308,151.77858 C112.563952,152.996719 112.506305,154.216263 111.256354,155.097201 C114.110572,156.551381 115.03292,159.812397 114.085264,161.200541 C112.240567,163.899555 107.77224,164.05832 104.09972,161.554602 C100.430011,159.052289 98.9494733,154.83306 100.792764,152.134046 C102.63746,149.433627 107.108599,149.274862 110.778308,151.77858 Z"/>
      <path fill="#FFF" d="M70.5548601,268.888889 C76.9810896,268.888889 82.2222222,266.392351 82.2222222,263.333993 C82.2222222,260.274316 76.9810896,257.777778 70.5548601,257.777778 C64.1300215,257.777778 58.8888889,260.274316 58.8888889,263.333993 C58.8888889,266.392351 64.1286306,268.888889 70.5548601,268.888889 Z"/>
      <rect width="14.444" height="7.778" x="147.778" y="76.667" fill="#F5F0F0"/>
      <g fill="#323232" transform="translate(138.889 162.222)">
        <path d="M4.46805556,100.111081 L0.904166667,23.7680365 L0.877777778,5.94200913 L0.861111111,0 L21.4180556,0 C19.9152778,33.3708219 18.4111111,66.7416438 16.9083333,100.111081 C12.7611111,100.111081 8.61388889,100.111081 4.46805556,100.111081 Z"/>
        <polygon points=".861 0 1.147 0 .878 5.943 .878 5.942"/>
      </g>
      <polygon fill="#1A1A1A" points="134.444 161.111 168.443 161.111 168.889 167.778 134.468 167.778"/>
      <polygon fill="#323232" points="168.889 165.556 162.792 80 151.673 82.474 135.436 125.026 134.444 165.396"/>
      <path fill="#F5F0F0" d="M150,78.3294971 C148.233474,105.300272 148.862166,118.297412 136.700422,127.777778 L136.666667,116.224454 L147.243319,86.9882123 L148.500703,76.6666667 L150,78.3294971 Z"/>
      <path fill="#323232" d="M148.796418,76.7683709 L148.888889,92.5520377 L148.119208,95.2660092 L140.3612,120.788208 L134.444444,134.444444 L135.817904,115.438285 L146.465616,87.0767256 L147.282893,78.1490412 C147.40664,76.7920555 147.301931,76.6666667 147.301931,76.6666667 L148.796418,76.7683709 Z"/>
      <path fill="#1A1A1A" d="M145.604192,90.6039208 C139.768959,108.201956 127.142675,132.334678 111.111111,149.095955 L115.863733,153.333333 C132.913815,139.681391 151.842095,115.044416 157.925339,102.030003 C165.192907,86.4847055 151.492371,72.8533726 145.604192,90.6039208 Z"/>
      <path fill="#E7B791" d="M108.135465,147.416059 C106.462008,149.059663 106.719149,150.391081 108.1722,151.146597 C105.417118,153.23068 104.979026,156.974048 106.199425,158.338253 C108.572197,160.991111 113.285088,160.40523 116.725879,157.026791 C120.168031,153.649778 121.034691,148.760307 118.661919,146.107449 C116.290508,143.453165 111.577617,144.039046 108.135465,147.416059 Z"/>
      <path fill="#1A1A1A" d="M142.778472,270 C149.815872,270 155.555556,267.006567 155.555556,263.333333 C155.555556,259.661543 149.815872,256.666667 142.778472,256.666667 C135.741073,256.666667 130,259.661543 130,263.333333 C130,267.006567 135.741073,270 142.778472,270 Z"/>
      <g transform="translate(114.444)">
        <ellipse cx="80.44" cy="52.666" fill="#E7B791" rx="8.002" ry="5.121" transform="rotate(-66.06 80.44 52.666)"/>
        <ellipse cx="7.669" cy="35.245" fill="#E7B791" rx="8.001" ry="5.121" transform="rotate(-92.149 7.669 35.245)"/>
        <ellipse cx="42.793" cy="47.207" fill="#E7B791" rx="28.788" ry="37.347" transform="rotate(-79.106 42.793 47.207)"/>
        <ellipse cx="32.174" cy="42.331" fill="#323232" rx="3.632" ry="2.076" transform="rotate(-79.106 32.174 42.331)"/>
        <ellipse cx="54.473" cy="46.624" fill="#323232" rx="3.632" ry="2.076" transform="rotate(-79.106 54.473 46.624)"/>
        <path fill="#5E3A1D" d="M75.8222222,26.35 C57.7888889,22.1013889 22.9916667,45.3 5.84583333,34.1736111 C13.6513889,12.4833333 39.0583333,4.35555556 57.9833333,11.3722222 C64.9694444,13.9611111 71.1194444,17.5166667 75.8222222,26.35 Z"/>
        <path fill="#5E3A1D" d="M63.5166667,16.0555556 C56.8944444,30.7763889 68.6958333,50.7763889 80.4402778,52.6763889 C84.7791667,40.3152778 76.5638889,20.9777778 63.5166667,16.0555556 Z"/>
        <path fill="#C79369" d="M52.8722222,60.0486111 C47.4013889,60.0541667 34.5041667,57.4791667 28.6666667,55.3902778 C33.4444444,64.0486111 46.4291667,66.8152778 52.8722222,60.0486111 Z"/>
        <path fill="#5E3A1D" d="M75.6972222,27.0027778 C51.2097222,16.2347222 10.4416667,42.2416667 6.01666667,10.8361111 C17.8041667,18.0666667 20.1166667,13.6055556 33.3861111,9.50972222 C46.7680556,5.38055556 65.2361111,7.36111111 75.6972222,27.0027778 Z"/>
        <path fill="#5E3A1D" d="M77.6791667,33.9805556 C56.9,17.1333333 10.7152778,31.4611111 14.7347222,0 C24.1972222,10.0847222 27.6055556,6.39166667 41.4833333,5.94305556 C55.4819444,5.49166667 72.7722222,12.2736111 77.6791667,33.9805556 Z"/>
      </g>
      <g transform="translate(17.778 18.778)">
        <ellipse cx="34.479" cy="25.212" fill="#5E3A1D" rx="21.178" ry="21.626" transform="rotate(-101.847 34.479 25.212)"/>
        <ellipse cx="35.431" cy="29.819" fill="#F5F0F0" rx="16.517" ry="24.443" transform="rotate(-101.853 35.431 29.82)"/>
        <ellipse cx="35.744" cy="31.321" fill="#5E3A1D" rx="14.999" ry="27.187" transform="rotate(-101.853 35.744 31.321)"/>
        <ellipse cx="38.937" cy="47.543" fill="#E7B791" rx="26.959" ry="30.746" transform="rotate(-101.847 38.937 47.543)"/>
        <g fill="#323232" transform="translate(24.815 40.525)">
          <ellipse cx="24.371" cy="4.043" rx="3.401" ry="1.965" transform="rotate(-101.853 24.37 4.043)"/>
          <ellipse cx="3.559" cy="8.456" rx="3.401" ry="1.965" transform="rotate(-101.853 3.559 8.456)"/>
        </g>
        <path fill="#C79369" d="M52.9934156,55.0630132 C47.9863374,57.1910358 35.1943004,59.8109981 29.0484979,60.1412806 C36.7438477,66.3009793 49.6916667,63.825951 52.9934156,55.0630132 Z"/>
        <ellipse cx="8.685" cy="53.952" fill="#E7B791" rx="7.942" ry="5.138" transform="rotate(-114.897 8.685 53.952)"/>
        <ellipse cx="69.006" cy="41.537" fill="#E7B791" rx="7.942" ry="5.138" transform="rotate(-88.808 69.006 41.537)"/>
        <g fill="#5E3A1D" transform="translate(2.757 15.723)">
          <path d="M37.0816049,2.5879096 C53.2801646,8.1845951 63.2074691,29.1094539 71.3563786,24.5969868 C66.8400823,7.17423729 48.623251,-2.50847458 37.0816049,2.5879096 Z"/>
          <path d="M53.216749,3.15510358 C29.2525309,6.87740113 21.3393621,42.5186441 0.561090535,38.4981168 C-3.0177572,11.8943503 24.1461934,-5.90188324 53.216749,3.15510358 Z"/>
        </g>
      </g>
    </g>
  </g>
</svg>
